<svg width="1280" height="832" viewBox="0 0 1280 832" fill="none" xmlns="http://www.w3.org/2000/svg">
<g clip-path="url(#clip0_5_7)">
<rect width="1280" height="832" fill="#BFB9B9"/>
<g opacity="0.2" filter="url(#filter0_f_5_7)">
<ellipse cx="650" cy="205.026" rx="810" ry="422.026" fill="#EF5FAD"/>
</g>
<path d="M70.7804 489.592C72.5869 489.592 73.9544 490.352 74.8829 491.872C75.8283 493.376 76.301 495.564 76.301 498.437C76.301 501.311 75.8283 503.508 74.8829 505.028C73.9544 506.548 72.5869 507.308 70.7804 507.308C68.9909 507.308 67.6234 506.548 66.678 505.028C65.7326 503.508 65.2599 501.311 65.2599 498.437C65.2599 495.581 65.7326 493.392 66.678 491.872C67.6234 490.352 68.9909 489.592 70.7804 489.592ZM67.0579 498.437C67.0579 500.476 67.2436 502.071 67.615 503.224L73.2368 492.123C72.646 491.337 71.8272 490.945 70.7804 490.945C69.6156 490.945 68.7039 491.563 68.0455 492.799C67.3871 494.019 67.0579 495.898 67.0579 498.437ZM70.7804 505.93C71.9622 505.93 72.8823 505.32 73.5407 504.101C74.1992 502.864 74.5284 500.977 74.5284 498.437C74.5284 496.282 74.3173 494.612 73.8953 493.426L68.2734 504.627C68.8812 505.496 69.7169 505.93 70.7804 505.93Z" fill="url(#paint0_linear_5_7)" fill-opacity="0.6"/>
<path d="M72.2999 534.368H76.0225V535.696H66.3741V534.368H70.6792V520.285L66.5767 522.716L65.8676 521.588L70.9324 518.481H72.2999V534.368Z" fill="url(#paint1_linear_5_7)" fill-opacity="0.6"/>
<path d="M70.7804 546.869C72.5869 546.869 73.9544 547.629 74.8829 549.149C75.8283 550.653 76.301 552.841 76.301 555.715C76.301 558.588 75.8283 560.785 74.8829 562.305C73.9544 563.826 72.5869 564.586 70.7804 564.586C68.9909 564.586 67.6234 563.826 66.678 562.305C65.7326 560.785 65.2599 558.588 65.2599 555.715C65.2599 552.858 65.7326 550.67 66.678 549.149C67.6234 547.629 68.9909 546.869 70.7804 546.869ZM67.0579 555.715C67.0579 557.753 67.2436 559.348 67.615 560.501L73.2368 549.4C72.646 548.615 71.8272 548.222 70.7804 548.222C69.6156 548.222 68.7039 548.84 68.0455 550.077C67.3871 551.296 67.0579 553.176 67.0579 555.715ZM70.7804 563.207C71.9622 563.207 72.8823 562.598 73.5407 561.378C74.1992 560.142 74.5284 558.254 74.5284 555.715C74.5284 553.56 74.3173 551.889 73.8953 550.703L68.2734 561.904C68.8812 562.773 69.7169 563.207 70.7804 563.207Z" fill="url(#paint2_linear_5_7)" fill-opacity="0.6"/>
<path d="M72.2999 591.646H76.0225V592.974H66.3741V591.646H70.6792V577.563L66.5767 579.993L65.8676 578.866L70.9324 575.758H72.2999V591.646Z" fill="url(#paint3_linear_5_7)" fill-opacity="0.6"/>
<path d="M72.2999 620.284H76.0225V621.613H66.3741V620.284H70.6792V606.201L66.5767 608.632L65.8676 607.504L70.9324 604.397H72.2999V620.284Z" fill="url(#paint4_linear_5_7)" fill-opacity="0.6"/>
<path d="M70.7804 632.785C72.5869 632.785 73.9544 633.545 74.8829 635.066C75.8283 636.569 76.301 638.758 76.301 641.631C76.301 644.505 75.8283 646.701 74.8829 648.222C73.9544 649.742 72.5869 650.502 70.7804 650.502C68.9909 650.502 67.6234 649.742 66.678 648.222C65.7326 646.701 65.2599 644.505 65.2599 641.631C65.2599 638.774 65.7326 636.586 66.678 635.066C67.6234 633.545 68.9909 632.785 70.7804 632.785ZM67.0579 641.631C67.0579 643.669 67.2436 645.265 67.615 646.417L73.2368 635.316C72.646 634.531 71.8272 634.138 70.7804 634.138C69.6156 634.138 68.7039 634.757 68.0455 635.993C67.3871 637.212 67.0579 639.092 67.0579 641.631ZM70.7804 649.124C71.9622 649.124 72.8823 648.514 73.5407 647.294C74.1992 646.058 74.5284 644.17 74.5284 641.631C74.5284 639.476 74.3173 637.805 73.8953 636.619L68.2734 647.821C68.8812 648.689 69.7169 649.124 70.7804 649.124Z" fill="url(#paint5_linear_5_7)" fill-opacity="0.6"/>
<path d="M72.2999 677.562H76.0225V678.89H66.3741V677.562H70.6792V663.479L66.5767 665.91L65.8676 664.782L70.9324 661.675H72.2999V677.562Z" fill="url(#paint6_linear_5_7)" fill-opacity="0.6"/>
<path d="M70.7804 690.063C72.5869 690.063 73.9544 690.823 74.8829 692.343C75.8283 693.847 76.301 696.035 76.301 698.909C76.301 701.782 75.8283 703.979 74.8829 705.499C73.9544 707.019 72.5869 707.779 70.7804 707.779C68.9909 707.779 67.6234 707.019 66.678 705.499C65.7326 703.979 65.2599 701.782 65.2599 698.909C65.2599 696.052 65.7326 693.863 66.678 692.343C67.6234 690.823 68.9909 690.063 70.7804 690.063ZM67.0579 698.909C67.0579 700.947 67.2436 702.542 67.615 703.695L73.2368 692.594C72.646 691.809 71.8272 691.416 70.7804 691.416C69.6156 691.416 68.7039 692.034 68.0455 693.27C67.3871 694.49 67.0579 696.369 67.0579 698.909ZM70.7804 706.401C71.9622 706.401 72.8823 705.791 73.5407 704.572C74.1992 703.336 74.5284 701.448 74.5284 698.909C74.5284 696.754 74.3173 695.083 73.8953 693.897L68.2734 705.098C68.8812 705.967 69.7169 706.401 70.7804 706.401Z" fill="url(#paint7_linear_5_7)" fill-opacity="0.6"/>
<path d="M70.7804 718.702C72.5869 718.702 73.9544 719.462 74.8829 720.982C75.8283 722.485 76.301 724.674 76.301 727.547C76.301 730.421 75.8283 732.618 74.8829 734.138C73.9544 735.658 72.5869 736.418 70.7804 736.418C68.9909 736.418 67.6234 735.658 66.678 734.138C65.7326 732.618 65.2599 730.421 65.2599 727.547C65.2599 724.691 65.7326 722.502 66.678 720.982C67.6234 719.462 68.9909 718.702 70.7804 718.702ZM67.0579 727.547C67.0579 729.585 67.2436 731.181 67.615 732.334L73.2368 721.232C72.646 720.447 71.8272 720.055 70.7804 720.055C69.6156 720.055 68.7039 720.673 68.0455 721.909C67.3871 723.129 67.0579 725.008 67.0579 727.547ZM70.7804 735.04C71.9622 735.04 72.8823 734.43 73.5407 733.211C74.1992 731.974 74.5284 730.087 74.5284 727.547C74.5284 725.392 74.3173 723.722 73.8953 722.536L68.2734 733.737C68.8812 734.606 69.7169 735.04 70.7804 735.04Z" fill="url(#paint8_linear_5_7)" fill-opacity="0.6"/>
<path d="M72.2999 763.478H76.0225V764.806H66.3741V763.478H70.6792V749.395L66.5767 751.826L65.8676 750.698L70.9324 747.591H72.2999V763.478Z" fill="url(#paint9_linear_5_7)" fill-opacity="0.6"/>
<path d="M70.7804 775.979C72.5869 775.979 73.9544 776.739 74.8829 778.259C75.8283 779.763 76.301 781.951 76.301 784.825C76.301 787.698 75.8283 789.895 74.8829 791.415C73.9544 792.935 72.5869 793.696 70.7804 793.696C68.9909 793.696 67.6234 792.935 66.678 791.415C65.7326 789.895 65.2599 787.698 65.2599 784.825C65.2599 781.968 65.7326 779.78 66.678 778.259C67.6234 776.739 68.9909 775.979 70.7804 775.979ZM67.0579 784.825C67.0579 786.863 67.2436 788.458 67.615 789.611L73.2368 778.51C72.646 777.725 71.8272 777.332 70.7804 777.332C69.6156 777.332 68.7039 777.95 68.0455 779.187C67.3871 780.406 67.0579 782.285 67.0579 784.825ZM70.7804 792.317C71.9622 792.317 72.8823 791.708 73.5407 790.488C74.1992 789.252 74.5284 787.364 74.5284 784.825C74.5284 782.67 74.3173 780.999 73.8953 779.813L68.2734 791.014C68.8812 791.883 69.7169 792.317 70.7804 792.317Z" fill="url(#paint10_linear_5_7)" fill-opacity="0.6"/>
<path d="M72.2999 820.756H76.0225V822.084H66.3741V820.756H70.6792V806.673L66.5767 809.103L65.8676 807.976L70.9324 804.868H72.2999V820.756Z" fill="url(#paint11_linear_5_7)" fill-opacity="0.6"/>
<path d="M72.2999 849.394H76.0225V850.723H66.3741V849.394H70.6792V835.311L66.5767 837.742L65.8676 836.614L70.9324 833.507H72.2999V849.394Z" fill="url(#paint12_linear_5_7)" fill-opacity="0.6"/>
<path d="M117.81 546.869C119.617 546.869 120.984 547.629 121.913 549.149C122.858 550.653 123.331 552.841 123.331 555.715C123.331 558.588 122.858 560.785 121.913 562.305C120.984 563.826 119.617 564.586 117.81 564.586C116.021 564.586 114.653 563.826 113.708 562.305C112.762 560.785 112.29 558.588 112.29 555.715C112.29 552.858 112.762 550.67 113.708 549.149C114.653 547.629 116.021 546.869 117.81 546.869ZM114.088 555.715C114.088 557.753 114.273 559.348 114.645 560.501L120.267 549.4C119.676 548.615 118.857 548.222 117.81 548.222C116.645 548.222 115.734 548.84 115.075 550.077C114.417 551.296 114.088 553.176 114.088 555.715ZM117.81 563.207C118.992 563.207 119.912 562.598 120.57 561.378C121.229 560.142 121.558 558.254 121.558 555.715C121.558 553.56 121.347 551.889 120.925 550.703L115.303 561.904C115.911 562.773 116.747 563.207 117.81 563.207Z" fill="url(#paint13_linear_5_7)" fill-opacity="0.6"/>
<path d="M119.33 591.646H123.052V592.974H113.404V591.646H117.709V577.563L113.606 579.993L112.897 578.866L117.962 575.758H119.33V591.646Z" fill="url(#paint14_linear_5_7)" fill-opacity="0.6"/>
<path d="M117.81 604.147C119.617 604.147 120.984 604.907 121.913 606.427C122.858 607.93 123.331 610.119 123.331 612.992C123.331 615.866 122.858 618.063 121.913 619.583C120.984 621.103 119.617 621.863 117.81 621.863C116.021 621.863 114.653 621.103 113.708 619.583C112.762 618.063 112.29 615.866 112.29 612.992C112.29 610.136 112.762 607.947 113.708 606.427C114.653 604.907 116.021 604.147 117.81 604.147ZM114.088 612.992C114.088 615.03 114.273 616.626 114.645 617.779L120.267 606.678C119.676 605.892 118.857 605.5 117.81 605.5C116.645 605.5 115.734 606.118 115.075 607.354C114.417 608.574 114.088 610.453 114.088 612.992ZM117.81 620.485C118.992 620.485 119.912 619.875 120.57 618.656C121.229 617.419 121.558 615.532 121.558 612.992C121.558 610.837 121.347 609.167 120.925 607.981L115.303 619.182C115.911 620.051 116.747 620.485 117.81 620.485Z" fill="url(#paint15_linear_5_7)" fill-opacity="0.6"/>
<path d="M117.81 632.785C119.617 632.785 120.984 633.545 121.913 635.066C122.858 636.569 123.331 638.758 123.331 641.631C123.331 644.505 122.858 646.701 121.913 648.222C120.984 649.742 119.617 650.502 117.81 650.502C116.021 650.502 114.653 649.742 113.708 648.222C112.762 646.701 112.29 644.505 112.29 641.631C112.29 638.774 112.762 636.586 113.708 635.066C114.653 633.545 116.021 632.785 117.81 632.785ZM114.088 641.631C114.088 643.669 114.273 645.265 114.645 646.417L120.267 635.316C119.676 634.531 118.857 634.138 117.81 634.138C116.645 634.138 115.734 634.757 115.075 635.993C114.417 637.212 114.088 639.092 114.088 641.631ZM117.81 649.124C118.992 649.124 119.912 648.514 120.57 647.294C121.229 646.058 121.558 644.17 121.558 641.631C121.558 639.476 121.347 637.805 120.925 636.619L115.303 647.821C115.911 648.689 116.747 649.124 117.81 649.124Z" fill="url(#paint16_linear_5_7)" fill-opacity="0.6"/>
<path d="M119.33 677.562H123.052V678.89H113.404V677.562H117.709V663.479L113.606 665.91L112.897 664.782L117.962 661.675H119.33V677.562Z" fill="url(#paint17_linear_5_7)" fill-opacity="0.6"/>
<path d="M117.81 690.063C119.617 690.063 120.984 690.823 121.913 692.343C122.858 693.847 123.331 696.035 123.331 698.909C123.331 701.782 122.858 703.979 121.913 705.499C120.984 707.019 119.617 707.779 117.81 707.779C116.021 707.779 114.653 707.019 113.708 705.499C112.762 703.979 112.29 701.782 112.29 698.909C112.29 696.052 112.762 693.863 113.708 692.343C114.653 690.823 116.021 690.063 117.81 690.063ZM114.088 698.909C114.088 700.947 114.273 702.542 114.645 703.695L120.267 692.594C119.676 691.809 118.857 691.416 117.81 691.416C116.645 691.416 115.734 692.034 115.075 693.27C114.417 694.49 114.088 696.369 114.088 698.909ZM117.81 706.401C118.992 706.401 119.912 705.791 120.57 704.572C121.229 703.336 121.558 701.448 121.558 698.909C121.558 696.754 121.347 695.083 120.925 693.897L115.303 705.098C115.911 705.967 116.747 706.401 117.81 706.401Z" fill="url(#paint18_linear_5_7)" fill-opacity="0.6"/>
<path d="M119.33 734.839H123.052V736.168H113.404V734.839H117.709V720.756L113.606 723.187L112.897 722.059L117.962 718.952H119.33V734.839Z" fill="url(#paint19_linear_5_7)" fill-opacity="0.6"/>
<path d="M117.81 747.34C119.617 747.34 120.984 748.1 121.913 749.621C122.858 751.124 123.331 753.313 123.331 756.186C123.331 759.059 122.858 761.256 121.913 762.777C120.984 764.297 119.617 765.057 117.81 765.057C116.021 765.057 114.653 764.297 113.708 762.777C112.762 761.256 112.29 759.059 112.29 756.186C112.29 753.329 112.762 751.141 113.708 749.621C114.653 748.1 116.021 747.34 117.81 747.34ZM114.088 756.186C114.088 758.224 114.273 759.82 114.645 760.972L120.267 749.871C119.676 749.086 118.857 748.693 117.81 748.693C116.645 748.693 115.734 749.312 115.075 750.548C114.417 751.767 114.088 753.647 114.088 756.186ZM117.81 763.679C118.992 763.679 119.912 763.069 120.57 761.849C121.229 760.613 121.558 758.725 121.558 756.186C121.558 754.031 121.347 752.36 120.925 751.174L115.303 762.376C115.911 763.244 116.747 763.679 117.81 763.679Z" fill="url(#paint20_linear_5_7)" fill-opacity="0.6"/>
<path d="M117.81 775.979C119.617 775.979 120.984 776.739 121.913 778.259C122.858 779.763 123.331 781.951 123.331 784.825C123.331 787.698 122.858 789.895 121.913 791.415C120.984 792.935 119.617 793.696 117.81 793.696C116.021 793.696 114.653 792.935 113.708 791.415C112.762 789.895 112.29 787.698 112.29 784.825C112.29 781.968 112.762 779.78 113.708 778.259C114.653 776.739 116.021 775.979 117.81 775.979ZM114.088 784.825C114.088 786.863 114.273 788.458 114.645 789.611L120.267 778.51C119.676 777.725 118.857 777.332 117.81 777.332C116.645 777.332 115.734 777.95 115.075 779.187C114.417 780.406 114.088 782.285 114.088 784.825ZM117.81 792.317C118.992 792.317 119.912 791.708 120.57 790.488C121.229 789.252 121.558 787.364 121.558 784.825C121.558 782.67 121.347 780.999 120.925 779.813L115.303 791.014C115.911 791.883 116.747 792.317 117.81 792.317Z" fill="url(#paint21_linear_5_7)" fill-opacity="0.6"/>
<path d="M119.33 820.756H123.052V822.084H113.404V820.756H117.709V806.673L113.606 809.103L112.897 807.976L117.962 804.868H119.33V820.756Z" fill="url(#paint22_linear_5_7)" fill-opacity="0.6"/>
<path d="M117.81 833.256C119.617 833.256 120.984 834.017 121.913 835.537C122.858 837.04 123.331 839.229 123.331 842.102C123.331 844.976 122.858 847.172 121.913 848.693C120.984 850.213 119.617 850.973 117.81 850.973C116.021 850.973 114.653 850.213 113.708 848.693C112.762 847.172 112.29 844.976 112.29 842.102C112.29 839.246 112.762 837.057 113.708 835.537C114.653 834.017 116.021 833.256 117.81 833.256ZM114.088 842.102C114.088 844.14 114.273 845.736 114.645 846.889L120.267 835.787C119.676 835.002 118.857 834.61 117.81 834.61C116.645 834.61 115.734 835.228 115.075 836.464C114.417 837.684 114.088 839.563 114.088 842.102ZM117.81 849.595C118.992 849.595 119.912 848.985 120.57 847.766C121.229 846.529 121.558 844.642 121.558 842.102C121.558 839.947 121.347 838.277 120.925 837.09L115.303 848.292C115.911 849.161 116.747 849.595 117.81 849.595Z" fill="url(#paint23_linear_5_7)" fill-opacity="0.6"/>
<path d="M119.33 878.033H123.052V879.361H113.404V878.033H117.709V863.95L113.606 866.381L112.897 865.253L117.962 862.146H119.33V878.033Z" fill="url(#paint24_linear_5_7)" fill-opacity="0.6"/>
<path d="M119.33 906.672H123.052V908H113.404V906.672H117.709V892.589L113.606 895.019L112.897 893.892L117.962 890.785H119.33V906.672Z" fill="url(#paint25_linear_5_7)" fill-opacity="0.6"/>
<path d="M47.2656 575.508C49.072 575.508 50.4395 576.268 51.368 577.788C52.3134 579.292 52.7861 581.48 52.7861 584.354C52.7861 587.227 52.3134 589.424 51.368 590.944C50.4395 592.464 49.072 593.224 47.2656 593.224C45.476 593.224 44.1085 592.464 43.1631 590.944C42.2177 589.424 41.745 587.227 41.745 584.354C41.745 581.497 42.2177 579.308 43.1631 577.788C44.1085 576.268 45.476 575.508 47.2656 575.508ZM43.543 584.354C43.543 586.392 43.7287 587.987 44.1001 589.14L49.722 578.039C49.1311 577.254 48.3123 576.861 47.2656 576.861C46.1007 576.861 45.189 577.479 44.5306 578.715C43.8722 579.935 43.543 581.814 43.543 584.354ZM47.2656 591.846C48.4473 591.846 49.3674 591.236 50.0259 590.017C50.6843 588.781 51.0135 586.893 51.0135 584.354C51.0135 582.199 50.8024 580.528 50.3804 579.342L44.7585 590.543C45.3663 591.412 46.202 591.846 47.2656 591.846Z" fill="url(#paint26_linear_5_7)" fill-opacity="0.6"/>
<path d="M47.2656 604.147C49.072 604.147 50.4395 604.907 51.368 606.427C52.3134 607.93 52.7861 610.119 52.7861 612.992C52.7861 615.866 52.3134 618.063 51.368 619.583C50.4395 621.103 49.072 621.863 47.2656 621.863C45.476 621.863 44.1085 621.103 43.1631 619.583C42.2177 618.063 41.745 615.866 41.745 612.992C41.745 610.136 42.2177 607.947 43.1631 606.427C44.1085 604.907 45.476 604.147 47.2656 604.147ZM43.543 612.992C43.543 615.03 43.7287 616.626 44.1001 617.779L49.722 606.678C49.1311 605.892 48.3123 605.5 47.2656 605.5C46.1007 605.5 45.189 606.118 44.5306 607.354C43.8722 608.574 43.543 610.453 43.543 612.992ZM47.2656 620.485C48.4473 620.485 49.3674 619.875 50.0259 618.656C50.6843 617.419 51.0135 615.532 51.0135 612.992C51.0135 610.837 50.8024 609.167 50.3804 607.981L44.7585 619.182C45.3663 620.051 46.202 620.485 47.2656 620.485Z" fill="url(#paint27_linear_5_7)" fill-opacity="0.6"/>
<path d="M48.785 648.923H52.5076V650.251H42.8592V648.923H47.1643V634.84L43.0618 637.271L42.3528 636.143L47.4175 633.036H48.785V648.923Z" fill="url(#paint28_linear_5_7)" fill-opacity="0.6"/>
<path d="M47.2656 661.424C49.072 661.424 50.4395 662.184 51.368 663.704C52.3134 665.208 52.7861 667.396 52.7861 670.27C52.7861 673.143 52.3134 675.34 51.368 676.86C50.4395 678.381 49.072 679.141 47.2656 679.141C45.476 679.141 44.1085 678.381 43.1631 676.86C42.2177 675.34 41.745 673.143 41.745 670.27C41.745 667.413 42.2177 665.225 43.1631 663.704C44.1085 662.184 45.476 661.424 47.2656 661.424ZM43.543 670.27C43.543 672.308 43.7287 673.903 44.1001 675.056L49.722 663.955C49.1311 663.17 48.3123 662.777 47.2656 662.777C46.1007 662.777 45.189 663.395 44.5306 664.632C43.8722 665.851 43.543 667.731 43.543 670.27ZM47.2656 677.762C48.4473 677.762 49.3674 677.153 50.0259 675.933C50.6843 674.697 51.0135 672.809 51.0135 670.27C51.0135 668.115 50.8024 666.444 50.3804 665.258L44.7585 676.459C45.3663 677.328 46.202 677.762 47.2656 677.762Z" fill="url(#paint29_linear_5_7)" fill-opacity="0.6"/>
<path d="M48.785 706.201H52.5076V707.529H42.8592V706.201H47.1643V692.118L43.0618 694.548L42.3528 693.421L47.4175 690.313H48.785V706.201Z" fill="url(#paint30_linear_5_7)" fill-opacity="0.6"/>
<path d="M48.785 734.839H52.5076V736.168H42.8592V734.839H47.1643V720.756L43.0618 723.187L42.3528 722.059L47.4175 718.952H48.785V734.839Z" fill="url(#paint31_linear_5_7)" fill-opacity="0.6"/>
<path d="M95.8148 534.368H99.5373V535.696H89.889V534.368H94.194V520.285L90.0916 522.716L89.3825 521.588L94.4473 518.481H95.8148V534.368Z" fill="url(#paint32_linear_5_7)" fill-opacity="0.6"/>
<path d="M94.2953 546.869C96.1018 546.869 97.4692 547.629 98.3978 549.149C99.3432 550.653 99.8159 552.841 99.8159 555.715C99.8159 558.588 99.3432 560.785 98.3978 562.305C97.4692 563.826 96.1018 564.586 94.2953 564.586C92.5058 564.586 91.1383 563.826 90.1929 562.305C89.2475 560.785 88.7748 558.588 88.7748 555.715C88.7748 552.858 89.2475 550.67 90.1929 549.149C91.1383 547.629 92.5058 546.869 94.2953 546.869ZM90.5727 555.715C90.5727 557.753 90.7585 559.348 91.1299 560.501L96.7517 549.4C96.1608 548.615 95.342 548.222 94.2953 548.222C93.1304 548.222 92.2188 548.84 91.5604 550.077C90.902 551.296 90.5727 553.176 90.5727 555.715ZM94.2953 563.207C95.4771 563.207 96.3972 562.598 97.0556 561.378C97.714 560.142 98.0432 558.254 98.0432 555.715C98.0432 553.56 97.8322 551.889 97.4101 550.703L91.7883 561.904C92.3961 562.773 93.2317 563.207 94.2953 563.207Z" fill="url(#paint33_linear_5_7)" fill-opacity="0.6"/>
<path d="M95.8148 591.646H99.5373V592.974H89.889V591.646H94.194V577.563L90.0916 579.993L89.3825 578.866L94.4473 575.758H95.8148V591.646Z" fill="url(#paint34_linear_5_7)" fill-opacity="0.6"/>
<path d="M95.8148 620.284H99.5373V621.613H89.889V620.284H94.194V606.201L90.0916 608.632L89.3825 607.504L94.4473 604.397H95.8148V620.284Z" fill="url(#paint35_linear_5_7)" fill-opacity="0.6"/>
<path d="M94.2953 632.785C96.1018 632.785 97.4692 633.545 98.3978 635.066C99.3432 636.569 99.8159 638.758 99.8159 641.631C99.8159 644.505 99.3432 646.701 98.3978 648.222C97.4692 649.742 96.1018 650.502 94.2953 650.502C92.5058 650.502 91.1383 649.742 90.1929 648.222C89.2475 646.701 88.7748 644.505 88.7748 641.631C88.7748 638.774 89.2475 636.586 90.1929 635.066C91.1383 633.545 92.5058 632.785 94.2953 632.785ZM90.5727 641.631C90.5727 643.669 90.7585 645.265 91.1299 646.417L96.7517 635.316C96.1608 634.531 95.342 634.138 94.2953 634.138C93.1304 634.138 92.2188 634.757 91.5604 635.993C90.902 637.212 90.5727 639.092 90.5727 641.631ZM94.2953 649.124C95.4771 649.124 96.3972 648.514 97.0556 647.294C97.714 646.058 98.0432 644.17 98.0432 641.631C98.0432 639.476 97.8322 637.805 97.4101 636.619L91.7883 647.821C92.3961 648.689 93.2317 649.124 94.2953 649.124Z" fill="url(#paint36_linear_5_7)" fill-opacity="0.6"/>
<path d="M95.8148 677.562H99.5373V678.89H89.889V677.562H94.194V663.479L90.0916 665.91L89.3825 664.782L94.4473 661.675H95.8148V677.562Z" fill="url(#paint37_linear_5_7)" fill-opacity="0.6"/>
<path d="M95.8148 706.201H99.5373V707.529H89.889V706.201H94.194V692.118L90.0916 694.548L89.3825 693.421L94.4473 690.313H95.8148V706.201Z" fill="url(#paint38_linear_5_7)" fill-opacity="0.6"/>
<path d="M94.2953 718.702C96.1018 718.702 97.4692 719.462 98.3978 720.982C99.3432 722.485 99.8159 724.674 99.8159 727.547C99.8159 730.421 99.3432 732.618 98.3978 734.138C97.4692 735.658 96.1018 736.418 94.2953 736.418C92.5058 736.418 91.1383 735.658 90.1929 734.138C89.2475 732.618 88.7748 730.421 88.7748 727.547C88.7748 724.691 89.2475 722.502 90.1929 720.982C91.1383 719.462 92.5058 718.702 94.2953 718.702ZM90.5727 727.547C90.5727 729.585 90.7585 731.181 91.1299 732.334L96.7517 721.232C96.1608 720.447 95.342 720.055 94.2953 720.055C93.1304 720.055 92.2188 720.673 91.5604 721.909C90.902 723.129 90.5727 725.008 90.5727 727.547ZM94.2953 735.04C95.4771 735.04 96.3972 734.43 97.0556 733.211C97.714 731.974 98.0432 730.087 98.0432 727.547C98.0432 725.392 97.8322 723.722 97.4101 722.536L91.7883 733.737C92.3961 734.606 93.2317 735.04 94.2953 735.04Z" fill="url(#paint39_linear_5_7)" fill-opacity="0.6"/>
<path d="M95.8148 763.478H99.5373V764.806H89.889V763.478H94.194V749.395L90.0916 751.826L89.3825 750.698L94.4473 747.591H95.8148V763.478Z" fill="url(#paint40_linear_5_7)" fill-opacity="0.6"/>
<path d="M94.2953 775.979C96.1018 775.979 97.4692 776.739 98.3978 778.259C99.3432 779.763 99.8159 781.951 99.8159 784.825C99.8159 787.698 99.3432 789.895 98.3978 791.415C97.4692 792.935 96.1018 793.696 94.2953 793.696C92.5058 793.696 91.1383 792.935 90.1929 791.415C89.2475 789.895 88.7748 787.698 88.7748 784.825C88.7748 781.968 89.2475 779.78 90.1929 778.259C91.1383 776.739 92.5058 775.979 94.2953 775.979ZM90.5727 784.825C90.5727 786.863 90.7585 788.458 91.1299 789.611L96.7517 778.51C96.1608 777.725 95.342 777.332 94.2953 777.332C93.1304 777.332 92.2188 777.95 91.5604 779.187C90.902 780.406 90.5727 782.285 90.5727 784.825ZM94.2953 792.317C95.4771 792.317 96.3972 791.708 97.0556 790.488C97.714 789.252 98.0432 787.364 98.0432 784.825C98.0432 782.67 97.8322 780.999 97.4101 779.813L91.7883 791.014C92.3961 791.883 93.2317 792.317 94.2953 792.317Z" fill="url(#paint41_linear_5_7)" fill-opacity="0.6"/>
<path d="M141.325 518.23C143.132 518.23 144.499 518.99 145.428 520.511C146.373 522.014 146.846 524.203 146.846 527.076C146.846 529.95 146.373 532.146 145.428 533.667C144.499 535.187 143.132 535.947 141.325 535.947C139.536 535.947 138.168 535.187 137.223 533.667C136.277 532.146 135.805 529.95 135.805 527.076C135.805 524.219 136.277 522.031 137.223 520.511C138.168 518.99 139.536 518.23 141.325 518.23ZM137.603 527.076C137.603 529.114 137.788 530.71 138.16 531.862L143.782 520.761C143.191 519.976 142.372 519.584 141.325 519.584C140.16 519.584 139.249 520.202 138.59 521.438C137.932 522.657 137.603 524.537 137.603 527.076ZM141.325 534.569C142.507 534.569 143.427 533.959 144.085 532.739C144.744 531.503 145.073 529.615 145.073 527.076C145.073 524.921 144.862 523.25 144.44 522.064L138.818 533.266C139.426 534.134 140.262 534.569 141.325 534.569Z" fill="url(#paint42_linear_5_7)" fill-opacity="0.6"/>
<path d="M142.845 563.007H146.567V564.335H136.919V563.007H141.224V548.924L137.121 551.355L136.412 550.227L141.477 547.12H142.845V563.007Z" fill="url(#paint43_linear_5_7)" fill-opacity="0.6"/>
<path d="M142.845 591.646H146.567V592.974H136.919V591.646H141.224V577.563L137.121 579.993L136.412 578.866L141.477 575.758H142.845V591.646Z" fill="url(#paint44_linear_5_7)" fill-opacity="0.6"/>
<path d="M141.325 604.147C143.132 604.147 144.499 604.907 145.428 606.427C146.373 607.93 146.846 610.119 146.846 612.992C146.846 615.866 146.373 618.063 145.428 619.583C144.499 621.103 143.132 621.863 141.325 621.863C139.536 621.863 138.168 621.103 137.223 619.583C136.277 618.063 135.805 615.866 135.805 612.992C135.805 610.136 136.277 607.947 137.223 606.427C138.168 604.907 139.536 604.147 141.325 604.147ZM137.603 612.992C137.603 615.03 137.788 616.626 138.16 617.779L143.782 606.678C143.191 605.892 142.372 605.5 141.325 605.5C140.16 605.5 139.249 606.118 138.59 607.354C137.932 608.574 137.603 610.453 137.603 612.992ZM141.325 620.485C142.507 620.485 143.427 619.875 144.085 618.656C144.744 617.419 145.073 615.532 145.073 612.992C145.073 610.837 144.862 609.167 144.44 607.981L138.818 619.182C139.426 620.051 140.262 620.485 141.325 620.485Z" fill="url(#paint45_linear_5_7)" fill-opacity="0.6"/>
<path d="M141.325 632.785C143.132 632.785 144.499 633.545 145.428 635.066C146.373 636.569 146.846 638.758 146.846 641.631C146.846 644.505 146.373 646.701 145.428 648.222C144.499 649.742 143.132 650.502 141.325 650.502C139.536 650.502 138.168 649.742 137.223 648.222C136.277 646.701 135.805 644.505 135.805 641.631C135.805 638.774 136.277 636.586 137.223 635.066C138.168 633.545 139.536 632.785 141.325 632.785ZM137.603 641.631C137.603 643.669 137.788 645.265 138.16 646.417L143.782 635.316C143.191 634.531 142.372 634.138 141.325 634.138C140.16 634.138 139.249 634.757 138.59 635.993C137.932 637.212 137.603 639.092 137.603 641.631ZM141.325 649.124C142.507 649.124 143.427 648.514 144.085 647.294C144.744 646.058 145.073 644.17 145.073 641.631C145.073 639.476 144.862 637.805 144.44 636.619L138.818 647.821C139.426 648.689 140.262 649.124 141.325 649.124Z" fill="url(#paint46_linear_5_7)" fill-opacity="0.6"/>
<g opacity="0.6">
<path d="M1142.2 127.855C1143.92 127.855 1145.23 128.585 1146.11 130.044C1147.01 131.487 1147.46 133.587 1147.46 136.344C1147.46 139.102 1147.01 141.21 1146.11 142.669C1145.23 144.128 1143.92 144.857 1142.2 144.857C1140.49 144.857 1139.19 144.128 1138.28 142.669C1137.38 141.21 1136.93 139.102 1136.93 136.344C1136.93 133.603 1137.38 131.503 1138.28 130.044C1139.19 128.585 1140.49 127.855 1142.2 127.855ZM1138.65 136.344C1138.65 138.3 1138.82 139.831 1139.18 140.937L1144.54 130.284C1143.98 129.531 1143.2 129.154 1142.2 129.154C1141.09 129.154 1140.22 129.747 1139.59 130.933C1138.96 132.104 1138.65 133.907 1138.65 136.344ZM1142.2 143.535C1143.32 143.535 1144.2 142.949 1144.83 141.779C1145.46 140.593 1145.77 138.781 1145.77 136.344C1145.77 134.276 1145.57 132.673 1145.17 131.535L1139.81 142.284C1140.39 143.118 1141.18 143.535 1142.2 143.535Z" fill="url(#paint47_linear_5_7)"/>
<path d="M1143.65 170.825H1147.2V172.1H1137.99V170.825H1142.1V157.311L1138.19 159.643L1137.51 158.561L1142.34 155.579H1143.65V170.825Z" fill="url(#paint48_linear_5_7)"/>
<path d="M1142.2 182.822C1143.92 182.822 1145.23 183.551 1146.11 185.01C1147.01 186.453 1147.46 188.553 1147.46 191.311C1147.46 194.068 1147.01 196.176 1146.11 197.635C1145.23 199.094 1143.92 199.824 1142.2 199.824C1140.49 199.824 1139.19 199.094 1138.28 197.635C1137.38 196.176 1136.93 194.068 1136.93 191.311C1136.93 188.569 1137.38 186.469 1138.28 185.01C1139.19 183.551 1140.49 182.822 1142.2 182.822ZM1138.65 191.311C1138.65 193.267 1138.82 194.798 1139.18 195.904L1144.54 185.251C1143.98 184.497 1143.2 184.12 1142.2 184.12C1141.09 184.12 1140.22 184.714 1139.59 185.9C1138.96 187.07 1138.65 188.874 1138.65 191.311ZM1142.2 198.501C1143.32 198.501 1144.2 197.916 1144.83 196.746C1145.46 195.559 1145.77 193.748 1145.77 191.311C1145.77 189.243 1145.57 187.639 1145.17 186.501L1139.81 197.251C1140.39 198.084 1141.18 198.501 1142.2 198.501Z" fill="url(#paint49_linear_5_7)"/>
<path d="M1143.65 225.792H1147.2V227.067H1137.99V225.792H1142.1V212.277L1138.19 214.61L1137.51 213.528L1142.34 210.546H1143.65V225.792Z" fill="url(#paint50_linear_5_7)"/>
<path d="M1143.65 253.275H1147.2V254.55H1137.99V253.275H1142.1V239.76L1138.19 242.093L1137.51 241.011L1142.34 238.029H1143.65V253.275Z" fill="url(#paint51_linear_5_7)"/>
<path d="M1142.2 265.272C1143.92 265.272 1145.23 266.001 1146.11 267.46C1147.01 268.903 1147.46 271.003 1147.46 273.761C1147.46 276.518 1147.01 278.626 1146.11 280.085C1145.23 281.544 1143.92 282.274 1142.2 282.274C1140.49 282.274 1139.19 281.544 1138.28 280.085C1137.38 278.626 1136.93 276.518 1136.93 273.761C1136.93 271.019 1137.38 268.919 1138.28 267.46C1139.19 266.001 1140.49 265.272 1142.2 265.272ZM1138.65 273.761C1138.65 275.717 1138.82 277.248 1139.18 278.354L1144.54 267.701C1143.98 266.947 1143.2 266.57 1142.2 266.57C1141.09 266.57 1140.22 267.163 1139.59 268.35C1138.96 269.52 1138.65 271.324 1138.65 273.761ZM1142.2 280.951C1143.32 280.951 1144.2 280.366 1144.83 279.195C1145.46 278.009 1145.77 276.197 1145.77 273.761C1145.77 271.693 1145.57 270.089 1145.17 268.951L1139.81 279.7C1140.39 280.534 1141.18 280.951 1142.2 280.951Z" fill="url(#paint52_linear_5_7)"/>
<path d="M1143.65 308.242H1147.2V309.516H1137.99V308.242H1142.1V294.727L1138.19 297.06L1137.51 295.977L1142.34 292.995H1143.65V308.242Z" fill="url(#paint53_linear_5_7)"/>
<path d="M1142.2 320.238C1143.92 320.238 1145.23 320.968 1146.11 322.427C1147.01 323.87 1147.46 325.97 1147.46 328.727C1147.46 331.485 1147.01 333.593 1146.11 335.052C1145.23 336.511 1143.92 337.24 1142.2 337.24C1140.49 337.24 1139.19 336.511 1138.28 335.052C1137.38 333.593 1136.93 331.485 1136.93 328.727C1136.93 325.986 1137.38 323.886 1138.28 322.427C1139.19 320.968 1140.49 320.238 1142.2 320.238ZM1138.65 328.727C1138.65 330.683 1138.82 332.214 1139.18 333.32L1144.54 322.667C1143.98 321.914 1143.2 321.537 1142.2 321.537C1141.09 321.537 1140.22 322.13 1139.59 323.316C1138.96 324.487 1138.65 326.29 1138.65 328.727ZM1142.2 335.917C1143.32 335.917 1144.2 335.332 1144.83 334.162C1145.46 332.976 1145.77 331.164 1145.77 328.727C1145.77 326.659 1145.57 325.056 1145.17 323.918L1139.81 334.667C1140.39 335.501 1141.18 335.917 1142.2 335.917Z" fill="url(#paint54_linear_5_7)"/>
<path d="M1142.2 347.722C1143.92 347.722 1145.23 348.451 1146.11 349.91C1147.01 351.353 1147.46 353.453 1147.46 356.21C1147.46 358.968 1147.01 361.076 1146.11 362.535C1145.23 363.994 1143.92 364.723 1142.2 364.723C1140.49 364.723 1139.19 363.994 1138.28 362.535C1137.38 361.076 1136.93 358.968 1136.93 356.21C1136.93 353.469 1137.38 351.369 1138.28 349.91C1139.19 348.451 1140.49 347.722 1142.2 347.722ZM1138.65 356.21C1138.65 358.166 1138.82 359.697 1139.18 360.804L1144.54 350.15C1143.98 349.397 1143.2 349.02 1142.2 349.02C1141.09 349.02 1140.22 349.613 1139.59 350.8C1138.96 351.97 1138.65 353.774 1138.65 356.21ZM1142.2 363.401C1143.32 363.401 1144.2 362.816 1144.83 361.645C1145.46 360.459 1145.77 358.647 1145.77 356.21C1145.77 354.142 1145.57 352.539 1145.17 351.401L1139.81 362.15C1140.39 362.984 1141.18 363.401 1142.2 363.401Z" fill="url(#paint55_linear_5_7)"/>
<path d="M1143.65 390.692H1147.2V391.966H1137.99V390.692H1142.1V377.177L1138.19 379.509L1137.51 378.427L1142.34 375.445H1143.65V390.692Z" fill="url(#paint56_linear_5_7)"/>
<path d="M1142.2 402.688C1143.92 402.688 1145.23 403.418 1146.11 404.876C1147.01 406.319 1147.46 408.42 1147.46 411.177C1147.46 413.935 1147.01 416.043 1146.11 417.502C1145.23 418.961 1143.92 419.69 1142.2 419.69C1140.49 419.69 1139.19 418.961 1138.28 417.502C1137.38 416.043 1136.93 413.935 1136.93 411.177C1136.93 408.436 1137.38 406.335 1138.28 404.876C1139.19 403.418 1140.49 402.688 1142.2 402.688ZM1138.65 411.177C1138.65 413.133 1138.82 414.664 1139.18 415.77L1144.54 405.117C1143.98 404.363 1143.2 403.987 1142.2 403.987C1141.09 403.987 1140.22 404.58 1139.59 405.766C1138.96 406.937 1138.65 408.74 1138.65 411.177ZM1142.2 418.367C1143.32 418.367 1144.2 417.782 1144.83 416.612C1145.46 415.425 1145.77 413.614 1145.77 411.177C1145.77 409.109 1145.57 407.506 1145.17 406.367L1139.81 417.117C1140.39 417.951 1141.18 418.367 1142.2 418.367Z" fill="url(#paint57_linear_5_7)"/>
<path d="M1143.65 445.658H1147.2V446.933H1137.99V445.658H1142.1V432.143L1138.19 434.476L1137.51 433.394L1142.34 430.412H1143.65V445.658Z" fill="url(#paint58_linear_5_7)"/>
<path d="M1143.65 473.142H1147.2V474.416H1137.99V473.142H1142.1V459.627L1138.19 461.959L1137.51 460.877L1142.34 457.895H1143.65V473.142Z" fill="url(#paint59_linear_5_7)"/>
<path d="M1187.06 182.822C1188.79 182.822 1190.09 183.551 1190.98 185.01C1191.88 186.453 1192.33 188.553 1192.33 191.311C1192.33 194.068 1191.88 196.176 1190.98 197.635C1190.09 199.094 1188.79 199.824 1187.06 199.824C1185.36 199.824 1184.05 199.094 1183.15 197.635C1182.25 196.176 1181.8 194.068 1181.8 191.311C1181.8 188.569 1182.25 186.469 1183.15 185.01C1184.05 183.551 1185.36 182.822 1187.06 182.822ZM1183.51 191.311C1183.51 193.267 1183.69 194.798 1184.04 195.904L1189.41 185.251C1188.84 184.497 1188.06 184.12 1187.06 184.12C1185.95 184.12 1185.08 184.714 1184.46 185.9C1183.83 187.07 1183.51 188.874 1183.51 191.311ZM1187.06 198.501C1188.19 198.501 1189.07 197.916 1189.7 196.746C1190.33 195.559 1190.64 193.748 1190.64 191.311C1190.64 189.243 1190.44 187.639 1190.04 186.501L1184.67 197.251C1185.25 198.084 1186.05 198.501 1187.06 198.501Z" fill="url(#paint60_linear_5_7)"/>
<path d="M1188.51 225.792H1192.07V227.067H1182.86V225.792H1186.97V212.277L1183.05 214.61L1182.38 213.528L1187.21 210.546H1188.51V225.792Z" fill="url(#paint61_linear_5_7)"/>
<path d="M1187.06 237.788C1188.79 237.788 1190.09 238.518 1190.98 239.977C1191.88 241.42 1192.33 243.52 1192.33 246.277C1192.33 249.035 1191.88 251.143 1190.98 252.602C1190.09 254.061 1188.79 254.79 1187.06 254.79C1185.36 254.79 1184.05 254.061 1183.15 252.602C1182.25 251.143 1181.8 249.035 1181.8 246.277C1181.8 243.536 1182.25 241.436 1183.15 239.977C1184.05 238.518 1185.36 237.788 1187.06 237.788ZM1183.51 246.277C1183.51 248.233 1183.69 249.764 1184.04 250.87L1189.41 240.217C1188.84 239.464 1188.06 239.087 1187.06 239.087C1185.95 239.087 1185.08 239.68 1184.46 240.867C1183.83 242.037 1183.51 243.84 1183.51 246.277ZM1187.06 253.468C1188.19 253.468 1189.07 252.882 1189.7 251.712C1190.33 250.526 1190.64 248.714 1190.64 246.277C1190.64 244.209 1190.44 242.606 1190.04 241.468L1184.67 252.217C1185.25 253.051 1186.05 253.468 1187.06 253.468Z" fill="url(#paint62_linear_5_7)"/>
<path d="M1187.06 265.272C1188.79 265.272 1190.09 266.001 1190.98 267.46C1191.88 268.903 1192.33 271.003 1192.33 273.761C1192.33 276.518 1191.88 278.626 1190.98 280.085C1190.09 281.544 1188.79 282.274 1187.06 282.274C1185.36 282.274 1184.05 281.544 1183.15 280.085C1182.25 278.626 1181.8 276.518 1181.8 273.761C1181.8 271.019 1182.25 268.919 1183.15 267.46C1184.05 266.001 1185.36 265.272 1187.06 265.272ZM1183.51 273.761C1183.51 275.717 1183.69 277.248 1184.04 278.354L1189.41 267.701C1188.84 266.947 1188.06 266.57 1187.06 266.57C1185.95 266.57 1185.08 267.163 1184.46 268.35C1183.83 269.52 1183.51 271.324 1183.51 273.761ZM1187.06 280.951C1188.19 280.951 1189.07 280.366 1189.7 279.195C1190.33 278.009 1190.64 276.197 1190.64 273.761C1190.64 271.693 1190.44 270.089 1190.04 268.951L1184.67 279.7C1185.25 280.534 1186.05 280.951 1187.06 280.951Z" fill="url(#paint63_linear_5_7)"/>
<path d="M1188.51 308.242H1192.07V309.516H1182.86V308.242H1186.97V294.727L1183.05 297.06L1182.38 295.977L1187.21 292.995H1188.51V308.242Z" fill="url(#paint64_linear_5_7)"/>
<path d="M1187.06 320.238C1188.79 320.238 1190.09 320.968 1190.98 322.427C1191.88 323.87 1192.33 325.97 1192.33 328.727C1192.33 331.485 1191.88 333.593 1190.98 335.052C1190.09 336.511 1188.79 337.24 1187.06 337.24C1185.36 337.24 1184.05 336.511 1183.15 335.052C1182.25 333.593 1181.8 331.485 1181.8 328.727C1181.8 325.986 1182.25 323.886 1183.15 322.427C1184.05 320.968 1185.36 320.238 1187.06 320.238ZM1183.51 328.727C1183.51 330.683 1183.69 332.214 1184.04 333.32L1189.41 322.667C1188.84 321.914 1188.06 321.537 1187.06 321.537C1185.95 321.537 1185.08 322.13 1184.46 323.316C1183.83 324.487 1183.51 326.29 1183.51 328.727ZM1187.06 335.917C1188.19 335.917 1189.07 335.332 1189.7 334.162C1190.33 332.976 1190.64 331.164 1190.64 328.727C1190.64 326.659 1190.44 325.056 1190.04 323.918L1184.67 334.667C1185.25 335.501 1186.05 335.917 1187.06 335.917Z" fill="url(#paint65_linear_5_7)"/>
<path d="M1188.51 363.208H1192.07V364.483H1182.86V363.208H1186.97V349.693L1183.05 352.026L1182.38 350.944L1187.21 347.962H1188.51V363.208Z" fill="url(#paint66_linear_5_7)"/>
<path d="M1187.06 375.205C1188.79 375.205 1190.09 375.934 1190.98 377.393C1191.88 378.836 1192.33 380.936 1192.33 383.694C1192.33 386.451 1191.88 388.559 1190.98 390.018C1190.09 391.477 1188.79 392.207 1187.06 392.207C1185.36 392.207 1184.05 391.477 1183.15 390.018C1182.25 388.559 1181.8 386.451 1181.8 383.694C1181.8 380.952 1182.25 378.852 1183.15 377.393C1184.05 375.934 1185.36 375.205 1187.06 375.205ZM1183.51 383.694C1183.51 385.65 1183.69 387.181 1184.04 388.287L1189.41 377.634C1188.84 376.88 1188.06 376.503 1187.06 376.503C1185.95 376.503 1185.08 377.097 1184.46 378.283C1183.83 379.453 1183.51 381.257 1183.51 383.694ZM1187.06 390.884C1188.19 390.884 1189.07 390.299 1189.7 389.129C1190.33 387.942 1190.64 386.131 1190.64 383.694C1190.64 381.626 1190.44 380.022 1190.04 378.884L1184.67 389.634C1185.25 390.467 1186.05 390.884 1187.06 390.884Z" fill="url(#paint67_linear_5_7)"/>
<path d="M1187.06 402.688C1188.79 402.688 1190.09 403.418 1190.98 404.876C1191.88 406.319 1192.33 408.42 1192.33 411.177C1192.33 413.935 1191.88 416.043 1190.98 417.502C1190.09 418.961 1188.79 419.69 1187.06 419.69C1185.36 419.69 1184.05 418.961 1183.15 417.502C1182.25 416.043 1181.8 413.935 1181.8 411.177C1181.8 408.436 1182.25 406.335 1183.15 404.876C1184.05 403.418 1185.36 402.688 1187.06 402.688ZM1183.51 411.177C1183.51 413.133 1183.69 414.664 1184.04 415.77L1189.41 405.117C1188.84 404.363 1188.06 403.987 1187.06 403.987C1185.95 403.987 1185.08 404.58 1184.46 405.766C1183.83 406.937 1183.51 408.74 1183.51 411.177ZM1187.06 418.367C1188.19 418.367 1189.07 417.782 1189.7 416.612C1190.33 415.425 1190.64 413.614 1190.64 411.177C1190.64 409.109 1190.44 407.506 1190.04 406.367L1184.67 417.117C1185.25 417.951 1186.05 418.367 1187.06 418.367Z" fill="url(#paint68_linear_5_7)"/>
<path d="M1188.51 445.658H1192.07V446.933H1182.86V445.658H1186.97V432.143L1183.05 434.476L1182.38 433.394L1187.21 430.412H1188.51V445.658Z" fill="url(#paint69_linear_5_7)"/>
<path d="M1187.06 457.655C1188.79 457.655 1190.09 458.384 1190.98 459.843C1191.88 461.286 1192.33 463.386 1192.33 466.144C1192.33 468.901 1191.88 471.009 1190.98 472.468C1190.09 473.927 1188.79 474.657 1187.06 474.657C1185.36 474.657 1184.05 473.927 1183.15 472.468C1182.25 471.009 1181.8 468.901 1181.8 466.144C1181.8 463.402 1182.25 461.302 1183.15 459.843C1184.05 458.384 1185.36 457.655 1187.06 457.655ZM1183.51 466.144C1183.51 468.099 1183.69 469.631 1184.04 470.737L1189.41 460.084C1188.84 459.33 1188.06 458.953 1187.06 458.953C1185.95 458.953 1185.08 459.546 1184.46 460.733C1183.83 461.903 1183.51 463.707 1183.51 466.144ZM1187.06 473.334C1188.19 473.334 1189.07 472.749 1189.7 471.578C1190.33 470.392 1190.64 468.58 1190.64 466.144C1190.64 464.075 1190.44 462.472 1190.04 461.334L1184.67 472.083C1185.25 472.917 1186.05 473.334 1187.06 473.334Z" fill="url(#paint70_linear_5_7)"/>
<path d="M1188.51 500.625H1192.07V501.899H1182.86V500.625H1186.97V487.11L1183.05 489.443L1182.38 488.36L1187.21 485.378H1188.51V500.625Z" fill="url(#paint71_linear_5_7)"/>
<path d="M1188.51 528.108H1192.07V529.383H1182.86V528.108H1186.97V514.593L1183.05 516.926L1182.38 515.844L1187.21 512.862H1188.51V528.108Z" fill="url(#paint72_linear_5_7)"/>
<path d="M1119.76 210.305C1121.49 210.305 1122.79 211.035 1123.68 212.494C1124.58 213.936 1125.03 216.037 1125.03 218.794C1125.03 221.552 1124.58 223.66 1123.68 225.119C1122.79 226.578 1121.49 227.307 1119.76 227.307C1118.06 227.307 1116.75 226.578 1115.85 225.119C1114.95 223.66 1114.5 221.552 1114.5 218.794C1114.5 216.053 1114.95 213.952 1115.85 212.494C1116.75 211.035 1118.06 210.305 1119.76 210.305ZM1116.21 218.794C1116.21 220.75 1116.39 222.281 1116.74 223.387L1122.11 212.734C1121.54 211.981 1120.76 211.604 1119.76 211.604C1118.65 211.604 1117.78 212.197 1117.15 213.383C1116.53 214.554 1116.21 216.357 1116.21 218.794ZM1119.76 225.984C1120.89 225.984 1121.77 225.399 1122.4 224.229C1123.02 223.043 1123.34 221.231 1123.34 218.794C1123.34 216.726 1123.14 215.123 1122.74 213.984L1117.37 224.734C1117.95 225.568 1118.75 225.984 1119.76 225.984Z" fill="url(#paint73_linear_5_7)"/>
<path d="M1119.76 237.788C1121.49 237.788 1122.79 238.518 1123.68 239.977C1124.58 241.42 1125.03 243.52 1125.03 246.277C1125.03 249.035 1124.58 251.143 1123.68 252.602C1122.79 254.061 1121.49 254.79 1119.76 254.79C1118.06 254.79 1116.75 254.061 1115.85 252.602C1114.95 251.143 1114.5 249.035 1114.5 246.277C1114.5 243.536 1114.95 241.436 1115.85 239.977C1116.75 238.518 1118.06 237.788 1119.76 237.788ZM1116.21 246.277C1116.21 248.233 1116.39 249.764 1116.74 250.87L1122.11 240.217C1121.54 239.464 1120.76 239.087 1119.76 239.087C1118.65 239.087 1117.78 239.68 1117.15 240.867C1116.53 242.037 1116.21 243.84 1116.21 246.277ZM1119.76 253.468C1120.89 253.468 1121.77 252.882 1122.4 251.712C1123.02 250.526 1123.34 248.714 1123.34 246.277C1123.34 244.209 1123.14 242.606 1122.74 241.468L1117.37 252.217C1117.95 253.051 1118.75 253.468 1119.76 253.468Z" fill="url(#paint74_linear_5_7)"/>
<path d="M1121.21 280.759H1124.76V282.033H1115.56V280.759H1119.67V267.244L1115.75 269.576L1115.08 268.494L1119.91 265.512H1121.21V280.759Z" fill="url(#paint75_linear_5_7)"/>
<path d="M1119.76 292.755C1121.49 292.755 1122.79 293.484 1123.68 294.943C1124.58 296.386 1125.03 298.486 1125.03 301.244C1125.03 304.001 1124.58 306.11 1123.68 307.568C1122.79 309.027 1121.49 309.757 1119.76 309.757C1118.06 309.757 1116.75 309.027 1115.85 307.568C1114.95 306.11 1114.5 304.001 1114.5 301.244C1114.5 298.502 1114.95 296.402 1115.85 294.943C1116.75 293.484 1118.06 292.755 1119.76 292.755ZM1116.21 301.244C1116.21 303.2 1116.39 304.731 1116.74 305.837L1122.11 295.184C1121.54 294.43 1120.76 294.054 1119.76 294.054C1118.65 294.054 1117.78 294.647 1117.15 295.833C1116.53 297.003 1116.21 298.807 1116.21 301.244ZM1119.76 308.434C1120.89 308.434 1121.77 307.849 1122.4 306.679C1123.02 305.492 1123.34 303.681 1123.34 301.244C1123.34 299.176 1123.14 297.573 1122.74 296.434L1117.37 307.184C1117.95 308.017 1118.75 308.434 1119.76 308.434Z" fill="url(#paint76_linear_5_7)"/>
<path d="M1121.21 335.725H1124.76V337H1115.56V335.725H1119.67V322.21L1115.75 324.543L1115.08 323.461L1119.91 320.479H1121.21V335.725Z" fill="url(#paint77_linear_5_7)"/>
<path d="M1121.21 363.208H1124.76V364.483H1115.56V363.208H1119.67V349.693L1115.75 352.026L1115.08 350.944L1119.91 347.962H1121.21V363.208Z" fill="url(#paint78_linear_5_7)"/>
<path d="M1166.08 170.825H1169.63V172.1H1160.43V170.825H1164.53V157.311L1160.62 159.643L1159.94 158.561L1164.78 155.579H1166.08V170.825Z" fill="url(#paint79_linear_5_7)"/>
<path d="M1164.63 182.822C1166.35 182.822 1167.66 183.551 1168.54 185.01C1169.45 186.453 1169.9 188.553 1169.9 191.311C1169.9 194.068 1169.45 196.176 1168.54 197.635C1167.66 199.094 1166.35 199.824 1164.63 199.824C1162.92 199.824 1161.62 199.094 1160.72 197.635C1159.82 196.176 1159.36 194.068 1159.36 191.311C1159.36 188.569 1159.82 186.469 1160.72 185.01C1161.62 183.551 1162.92 182.822 1164.63 182.822ZM1161.08 191.311C1161.08 193.267 1161.26 194.798 1161.61 195.904L1166.97 185.251C1166.41 184.497 1165.63 184.12 1164.63 184.12C1163.52 184.12 1162.65 184.714 1162.02 185.9C1161.39 187.07 1161.08 188.874 1161.08 191.311ZM1164.63 198.501C1165.76 198.501 1166.64 197.916 1167.26 196.746C1167.89 195.559 1168.21 193.748 1168.21 191.311C1168.21 189.243 1168.01 187.639 1167.6 186.501L1162.24 197.251C1162.82 198.084 1163.62 198.501 1164.63 198.501Z" fill="url(#paint80_linear_5_7)"/>
<path d="M1166.08 225.792H1169.63V227.067H1160.43V225.792H1164.53V212.277L1160.62 214.61L1159.94 213.528L1164.78 210.546H1166.08V225.792Z" fill="url(#paint81_linear_5_7)"/>
<path d="M1166.08 253.275H1169.63V254.55H1160.43V253.275H1164.53V239.76L1160.62 242.093L1159.94 241.011L1164.78 238.029H1166.08V253.275Z" fill="url(#paint82_linear_5_7)"/>
<path d="M1164.63 265.272C1166.35 265.272 1167.66 266.001 1168.54 267.46C1169.45 268.903 1169.9 271.003 1169.9 273.761C1169.9 276.518 1169.45 278.626 1168.54 280.085C1167.66 281.544 1166.35 282.274 1164.63 282.274C1162.92 282.274 1161.62 281.544 1160.72 280.085C1159.82 278.626 1159.36 276.518 1159.36 273.761C1159.36 271.019 1159.82 268.919 1160.72 267.46C1161.62 266.001 1162.92 265.272 1164.63 265.272ZM1161.08 273.761C1161.08 275.717 1161.26 277.248 1161.61 278.354L1166.97 267.701C1166.41 266.947 1165.63 266.57 1164.63 266.57C1163.52 266.57 1162.65 267.163 1162.02 268.35C1161.39 269.52 1161.08 271.324 1161.08 273.761ZM1164.63 280.951C1165.76 280.951 1166.64 280.366 1167.26 279.195C1167.89 278.009 1168.21 276.197 1168.21 273.761C1168.21 271.693 1168.01 270.089 1167.6 268.951L1162.24 279.7C1162.82 280.534 1163.62 280.951 1164.63 280.951Z" fill="url(#paint83_linear_5_7)"/>
<path d="M1166.08 308.242H1169.63V309.516H1160.43V308.242H1164.53V294.727L1160.62 297.06L1159.94 295.977L1164.78 292.995H1166.08V308.242Z" fill="url(#paint84_linear_5_7)"/>
<path d="M1166.08 335.725H1169.63V337H1160.43V335.725H1164.53V322.21L1160.62 324.543L1159.94 323.461L1164.78 320.479H1166.08V335.725Z" fill="url(#paint85_linear_5_7)"/>
<path d="M1164.63 347.722C1166.35 347.722 1167.66 348.451 1168.54 349.91C1169.45 351.353 1169.9 353.453 1169.9 356.21C1169.9 358.968 1169.45 361.076 1168.54 362.535C1167.66 363.994 1166.35 364.723 1164.63 364.723C1162.92 364.723 1161.62 363.994 1160.72 362.535C1159.82 361.076 1159.36 358.968 1159.36 356.21C1159.36 353.469 1159.82 351.369 1160.72 349.91C1161.62 348.451 1162.92 347.722 1164.63 347.722ZM1161.08 356.21C1161.08 358.166 1161.26 359.697 1161.61 360.804L1166.97 350.15C1166.41 349.397 1165.63 349.02 1164.63 349.02C1163.52 349.02 1162.65 349.613 1162.02 350.8C1161.39 351.97 1161.08 353.774 1161.08 356.21ZM1164.63 363.401C1165.76 363.401 1166.64 362.816 1167.26 361.645C1167.89 360.459 1168.21 358.647 1168.21 356.21C1168.21 354.142 1168.01 352.539 1167.6 351.401L1162.24 362.15C1162.82 362.984 1163.62 363.401 1164.63 363.401Z" fill="url(#paint86_linear_5_7)"/>
<path d="M1166.08 390.692H1169.63V391.966H1160.43V390.692H1164.53V377.177L1160.62 379.509L1159.94 378.427L1164.78 375.445H1166.08V390.692Z" fill="url(#paint87_linear_5_7)"/>
<path d="M1164.63 402.688C1166.35 402.688 1167.66 403.418 1168.54 404.876C1169.45 406.319 1169.9 408.42 1169.9 411.177C1169.9 413.935 1169.45 416.043 1168.54 417.502C1167.66 418.961 1166.35 419.69 1164.63 419.69C1162.92 419.69 1161.62 418.961 1160.72 417.502C1159.82 416.043 1159.36 413.935 1159.36 411.177C1159.36 408.436 1159.82 406.335 1160.72 404.876C1161.62 403.418 1162.92 402.688 1164.63 402.688ZM1161.08 411.177C1161.08 413.133 1161.26 414.664 1161.61 415.77L1166.97 405.117C1166.41 404.363 1165.63 403.987 1164.63 403.987C1163.52 403.987 1162.65 404.58 1162.02 405.766C1161.39 406.937 1161.08 408.74 1161.08 411.177ZM1164.63 418.367C1165.76 418.367 1166.64 417.782 1167.26 416.612C1167.89 415.425 1168.21 413.614 1168.21 411.177C1168.21 409.109 1168.01 407.506 1167.6 406.367L1162.24 417.117C1162.82 417.951 1163.62 418.367 1164.63 418.367Z" fill="url(#paint88_linear_5_7)"/>
<path d="M1209.5 155.339C1211.22 155.339 1212.53 156.068 1213.41 157.527C1214.31 158.97 1214.77 161.07 1214.77 163.827C1214.77 166.585 1214.31 168.693 1213.41 170.152C1212.53 171.611 1211.22 172.34 1209.5 172.34C1207.79 172.34 1206.49 171.611 1205.58 170.152C1204.68 168.693 1204.23 166.585 1204.23 163.827C1204.23 161.086 1204.68 158.986 1205.58 157.527C1206.49 156.068 1207.79 155.339 1209.5 155.339ZM1205.95 163.827C1205.95 165.783 1206.12 167.314 1206.48 168.421L1211.84 157.767C1211.28 157.014 1210.5 156.637 1209.5 156.637C1208.39 156.637 1207.52 157.23 1206.89 158.417C1206.26 159.587 1205.95 161.391 1205.95 163.827ZM1209.5 171.018C1210.63 171.018 1211.5 170.433 1212.13 169.262C1212.76 168.076 1213.07 166.264 1213.07 163.827C1213.07 161.759 1212.87 160.156 1212.47 159.018L1207.11 169.767C1207.69 170.601 1208.48 171.018 1209.5 171.018Z" fill="url(#paint89_linear_5_7)"/>
<path d="M1210.95 198.309H1214.5V199.583H1205.29V198.309H1209.4V184.794L1205.49 187.126L1204.81 186.044L1209.64 183.062H1210.95V198.309Z" fill="url(#paint90_linear_5_7)"/>
<path d="M1210.95 225.792H1214.5V227.067H1205.29V225.792H1209.4V212.277L1205.49 214.61L1204.81 213.528L1209.64 210.546H1210.95V225.792Z" fill="url(#paint91_linear_5_7)"/>
<path d="M1209.5 237.788C1211.22 237.788 1212.53 238.518 1213.41 239.977C1214.31 241.42 1214.77 243.52 1214.77 246.277C1214.77 249.035 1214.31 251.143 1213.41 252.602C1212.53 254.061 1211.22 254.79 1209.5 254.79C1207.79 254.79 1206.49 254.061 1205.58 252.602C1204.68 251.143 1204.23 249.035 1204.23 246.277C1204.23 243.536 1204.68 241.436 1205.58 239.977C1206.49 238.518 1207.79 237.788 1209.5 237.788ZM1205.95 246.277C1205.95 248.233 1206.12 249.764 1206.48 250.87L1211.84 240.217C1211.28 239.464 1210.5 239.087 1209.5 239.087C1208.39 239.087 1207.52 239.68 1206.89 240.867C1206.26 242.037 1205.95 243.84 1205.95 246.277ZM1209.5 253.468C1210.63 253.468 1211.5 252.882 1212.13 251.712C1212.76 250.526 1213.07 248.714 1213.07 246.277C1213.07 244.209 1212.87 242.606 1212.47 241.468L1207.11 252.217C1207.69 253.051 1208.48 253.468 1209.5 253.468Z" fill="url(#paint92_linear_5_7)"/>
<path d="M1209.5 265.272C1211.22 265.272 1212.53 266.001 1213.41 267.46C1214.31 268.903 1214.77 271.003 1214.77 273.761C1214.77 276.518 1214.31 278.626 1213.41 280.085C1212.53 281.544 1211.22 282.274 1209.5 282.274C1207.79 282.274 1206.49 281.544 1205.58 280.085C1204.68 278.626 1204.23 276.518 1204.23 273.761C1204.23 271.019 1204.68 268.919 1205.58 267.46C1206.49 266.001 1207.79 265.272 1209.5 265.272ZM1205.95 273.761C1205.95 275.717 1206.12 277.248 1206.48 278.354L1211.84 267.701C1211.28 266.947 1210.5 266.57 1209.5 266.57C1208.39 266.57 1207.52 267.163 1206.89 268.35C1206.26 269.52 1205.95 271.324 1205.95 273.761ZM1209.5 280.951C1210.63 280.951 1211.5 280.366 1212.13 279.195C1212.76 278.009 1213.07 276.197 1213.07 273.761C1213.07 271.693 1212.87 270.089 1212.47 268.951L1207.11 279.7C1207.69 280.534 1208.48 280.951 1209.5 280.951Z" fill="url(#paint93_linear_5_7)"/>
</g>
<rect x="-159.5" y="-216.5" width="1619" height="1124" stroke="black"/>
</g>
<defs>
<filter id="filter0_f_5_7" x="-560.19" y="-617.19" width="2420.38" height="1644.43" filterUnits="userSpaceOnUse" color-interpolation-filters="sRGB">
<feFlood flood-opacity="0" result="BackgroundImageFix"/>
<feBlend mode="normal" in="SourceGraphic" in2="BackgroundImageFix" result="shape"/>
<feGaussianBlur stdDeviation="200.095" result="effect1_foregroundBlur_5_7"/>
</filter>
<linearGradient id="paint0_linear_5_7" x1="94.2953" y1="489.592" x2="94.2953" y2="865.051" gradientUnits="userSpaceOnUse">
<stop stop-color="#0F1215"/>
<stop offset="1" stop-color="#FF0000" stop-opacity="0"/>
</linearGradient>
<linearGradient id="paint1_linear_5_7" x1="94.2953" y1="489.592" x2="94.2953" y2="865.051" gradientUnits="userSpaceOnUse">
<stop stop-color="#0F1215"/>
<stop offset="1" stop-color="#FF0000" stop-opacity="0"/>
</linearGradient>
<linearGradient id="paint2_linear_5_7" x1="94.2953" y1="489.592" x2="94.2953" y2="865.051" gradientUnits="userSpaceOnUse">
<stop stop-color="#0F1215"/>
<stop offset="1" stop-color="#FF0000" stop-opacity="0"/>
</linearGradient>
<linearGradient id="paint3_linear_5_7" x1="94.2953" y1="489.592" x2="94.2953" y2="865.051" gradientUnits="userSpaceOnUse">
<stop stop-color="#0F1215"/>
<stop offset="1" stop-color="#FF0000" stop-opacity="0"/>
</linearGradient>
<linearGradient id="paint4_linear_5_7" x1="94.2953" y1="489.592" x2="94.2953" y2="865.051" gradientUnits="userSpaceOnUse">
<stop stop-color="#0F1215"/>
<stop offset="1" stop-color="#FF0000" stop-opacity="0"/>
</linearGradient>
<linearGradient id="paint5_linear_5_7" x1="94.2953" y1="489.592" x2="94.2953" y2="865.051" gradientUnits="userSpaceOnUse">
<stop stop-color="#0F1215"/>
<stop offset="1" stop-color="#FF0000" stop-opacity="0"/>
</linearGradient>
<linearGradient id="paint6_linear_5_7" x1="94.2953" y1="489.592" x2="94.2953" y2="865.051" gradientUnits="userSpaceOnUse">
<stop stop-color="#0F1215"/>
<stop offset="1" stop-color="#FF0000" stop-opacity="0"/>
</linearGradient>
<linearGradient id="paint7_linear_5_7" x1="94.2953" y1="489.592" x2="94.2953" y2="865.051" gradientUnits="userSpaceOnUse">
<stop stop-color="#0F1215"/>
<stop offset="1" stop-color="#FF0000" stop-opacity="0"/>
</linearGradient>
<linearGradient id="paint8_linear_5_7" x1="94.2953" y1="489.592" x2="94.2953" y2="865.051" gradientUnits="userSpaceOnUse">
<stop stop-color="#0F1215"/>
<stop offset="1" stop-color="#FF0000" stop-opacity="0"/>
</linearGradient>
<linearGradient id="paint9_linear_5_7" x1="94.2953" y1="489.592" x2="94.2953" y2="865.051" gradientUnits="userSpaceOnUse">
<stop stop-color="#0F1215"/>
<stop offset="1" stop-color="#FF0000" stop-opacity="0"/>
</linearGradient>
<linearGradient id="paint10_linear_5_7" x1="94.2953" y1="489.592" x2="94.2953" y2="865.051" gradientUnits="userSpaceOnUse">
<stop stop-color="#0F1215"/>
<stop offset="1" stop-color="#FF0000" stop-opacity="0"/>
</linearGradient>
<linearGradient id="paint11_linear_5_7" x1="94.2953" y1="489.592" x2="94.2953" y2="865.051" gradientUnits="userSpaceOnUse">
<stop stop-color="#0F1215"/>
<stop offset="1" stop-color="#FF0000" stop-opacity="0"/>
</linearGradient>
<linearGradient id="paint12_linear_5_7" x1="94.2953" y1="489.592" x2="94.2953" y2="865.051" gradientUnits="userSpaceOnUse">
<stop stop-color="#0F1215"/>
<stop offset="1" stop-color="#FF0000" stop-opacity="0"/>
</linearGradient>
<linearGradient id="paint13_linear_5_7" x1="94.2953" y1="489.592" x2="94.2953" y2="865.051" gradientUnits="userSpaceOnUse">
<stop stop-color="#0F1215"/>
<stop offset="1" stop-color="#FF0000" stop-opacity="0"/>
</linearGradient>
<linearGradient id="paint14_linear_5_7" x1="94.2953" y1="489.592" x2="94.2953" y2="865.051" gradientUnits="userSpaceOnUse">
<stop stop-color="#0F1215"/>
<stop offset="1" stop-color="#FF0000" stop-opacity="0"/>
</linearGradient>
<linearGradient id="paint15_linear_5_7" x1="94.2953" y1="489.592" x2="94.2953" y2="865.051" gradientUnits="userSpaceOnUse">
<stop stop-color="#0F1215"/>
<stop offset="1" stop-color="#FF0000" stop-opacity="0"/>
</linearGradient>
<linearGradient id="paint16_linear_5_7" x1="94.2953" y1="489.592" x2="94.2953" y2="865.051" gradientUnits="userSpaceOnUse">
<stop stop-color="#0F1215"/>
<stop offset="1" stop-color="#FF0000" stop-opacity="0"/>
</linearGradient>
<linearGradient id="paint17_linear_5_7" x1="94.2953" y1="489.592" x2="94.2953" y2="865.051" gradientUnits="userSpaceOnUse">
<stop stop-color="#0F1215"/>
<stop offset="1" stop-color="#FF0000" stop-opacity="0"/>
</linearGradient>
<linearGradient id="paint18_linear_5_7" x1="94.2953" y1="489.592" x2="94.2953" y2="865.051" gradientUnits="userSpaceOnUse">
<stop stop-color="#0F1215"/>
<stop offset="1" stop-color="#FF0000" stop-opacity="0"/>
</linearGradient>
<linearGradient id="paint19_linear_5_7" x1="94.2953" y1="489.592" x2="94.2953" y2="865.051" gradientUnits="userSpaceOnUse">
<stop stop-color="#0F1215"/>
<stop offset="1" stop-color="#FF0000" stop-opacity="0"/>
</linearGradient>
<linearGradient id="paint20_linear_5_7" x1="94.2953" y1="489.592" x2="94.2953" y2="865.051" gradientUnits="userSpaceOnUse">
<stop stop-color="#0F1215"/>
<stop offset="1" stop-color="#FF0000" stop-opacity="0"/>
</linearGradient>
<linearGradient id="paint21_linear_5_7" x1="94.2953" y1="489.592" x2="94.2953" y2="865.051" gradientUnits="userSpaceOnUse">
<stop stop-color="#0F1215"/>
<stop offset="1" stop-color="#FF0000" stop-opacity="0"/>
</linearGradient>
<linearGradient id="paint22_linear_5_7" x1="94.2953" y1="489.592" x2="94.2953" y2="865.051" gradientUnits="userSpaceOnUse">
<stop stop-color="#0F1215"/>
<stop offset="1" stop-color="#FF0000" stop-opacity="0"/>
</linearGradient>
<linearGradient id="paint23_linear_5_7" x1="94.2953" y1="489.592" x2="94.2953" y2="865.051" gradientUnits="userSpaceOnUse">
<stop stop-color="#0F1215"/>
<stop offset="1" stop-color="#FF0000" stop-opacity="0"/>
</linearGradient>
<linearGradient id="paint24_linear_5_7" x1="94.2953" y1="489.592" x2="94.2953" y2="865.051" gradientUnits="userSpaceOnUse">
<stop stop-color="#0F1215"/>
<stop offset="1" stop-color="#FF0000" stop-opacity="0"/>
</linearGradient>
<linearGradient id="paint25_linear_5_7" x1="94.2953" y1="489.592" x2="94.2953" y2="865.051" gradientUnits="userSpaceOnUse">
<stop stop-color="#0F1215"/>
<stop offset="1" stop-color="#FF0000" stop-opacity="0"/>
</linearGradient>
<linearGradient id="paint26_linear_5_7" x1="94.2953" y1="489.592" x2="94.2953" y2="865.051" gradientUnits="userSpaceOnUse">
<stop stop-color="#0F1215"/>
<stop offset="1" stop-color="#FF0000" stop-opacity="0"/>
</linearGradient>
<linearGradient id="paint27_linear_5_7" x1="94.2953" y1="489.592" x2="94.2953" y2="865.051" gradientUnits="userSpaceOnUse">
<stop stop-color="#0F1215"/>
<stop offset="1" stop-color="#FF0000" stop-opacity="0"/>
</linearGradient>
<linearGradient id="paint28_linear_5_7" x1="94.2953" y1="489.592" x2="94.2953" y2="865.051" gradientUnits="userSpaceOnUse">
<stop stop-color="#0F1215"/>
<stop offset="1" stop-color="#FF0000" stop-opacity="0"/>
</linearGradient>
<linearGradient id="paint29_linear_5_7" x1="94.2953" y1="489.592" x2="94.2953" y2="865.051" gradientUnits="userSpaceOnUse">
<stop stop-color="#0F1215"/>
<stop offset="1" stop-color="#FF0000" stop-opacity="0"/>
</linearGradient>
<linearGradient id="paint30_linear_5_7" x1="94.2953" y1="489.592" x2="94.2953" y2="865.051" gradientUnits="userSpaceOnUse">
<stop stop-color="#0F1215"/>
<stop offset="1" stop-color="#FF0000" stop-opacity="0"/>
</linearGradient>
<linearGradient id="paint31_linear_5_7" x1="94.2953" y1="489.592" x2="94.2953" y2="865.051" gradientUnits="userSpaceOnUse">
<stop stop-color="#0F1215"/>
<stop offset="1" stop-color="#FF0000" stop-opacity="0"/>
</linearGradient>
<linearGradient id="paint32_linear_5_7" x1="94.2953" y1="489.592" x2="94.2953" y2="865.051" gradientUnits="userSpaceOnUse">
<stop stop-color="#0F1215"/>
<stop offset="1" stop-color="#FF0000" stop-opacity="0"/>
</linearGradient>
<linearGradient id="paint33_linear_5_7" x1="94.2953" y1="489.592" x2="94.2953" y2="865.051" gradientUnits="userSpaceOnUse">
<stop stop-color="#0F1215"/>
<stop offset="1" stop-color="#FF0000" stop-opacity="0"/>
</linearGradient>
<linearGradient id="paint34_linear_5_7" x1="94.2953" y1="489.592" x2="94.2953" y2="865.051" gradientUnits="userSpaceOnUse">
<stop stop-color="#0F1215"/>
<stop offset="1" stop-color="#FF0000" stop-opacity="0"/>
</linearGradient>
<linearGradient id="paint35_linear_5_7" x1="94.2953" y1="489.592" x2="94.2953" y2="865.051" gradientUnits="userSpaceOnUse">
<stop stop-color="#0F1215"/>
<stop offset="1" stop-color="#FF0000" stop-opacity="0"/>
</linearGradient>
<linearGradient id="paint36_linear_5_7" x1="94.2953" y1="489.592" x2="94.2953" y2="865.051" gradientUnits="userSpaceOnUse">
<stop stop-color="#0F1215"/>
<stop offset="1" stop-color="#FF0000" stop-opacity="0"/>
</linearGradient>
<linearGradient id="paint37_linear_5_7" x1="94.2953" y1="489.592" x2="94.2953" y2="865.051" gradientUnits="userSpaceOnUse">
<stop stop-color="#0F1215"/>
<stop offset="1" stop-color="#FF0000" stop-opacity="0"/>
</linearGradient>
<linearGradient id="paint38_linear_5_7" x1="94.2953" y1="489.592" x2="94.2953" y2="865.051" gradientUnits="userSpaceOnUse">
<stop stop-color="#0F1215"/>
<stop offset="1" stop-color="#FF0000" stop-opacity="0"/>
</linearGradient>
<linearGradient id="paint39_linear_5_7" x1="94.2953" y1="489.592" x2="94.2953" y2="865.051" gradientUnits="userSpaceOnUse">
<stop stop-color="#0F1215"/>
<stop offset="1" stop-color="#FF0000" stop-opacity="0"/>
</linearGradient>
<linearGradient id="paint40_linear_5_7" x1="94.2953" y1="489.592" x2="94.2953" y2="865.051" gradientUnits="userSpaceOnUse">
<stop stop-color="#0F1215"/>
<stop offset="1" stop-color="#FF0000" stop-opacity="0"/>
</linearGradient>
<linearGradient id="paint41_linear_5_7" x1="94.2953" y1="489.592" x2="94.2953" y2="865.051" gradientUnits="userSpaceOnUse">
<stop stop-color="#0F1215"/>
<stop offset="1" stop-color="#FF0000" stop-opacity="0"/>
</linearGradient>
<linearGradient id="paint42_linear_5_7" x1="94.2953" y1="489.592" x2="94.2953" y2="865.051" gradientUnits="userSpaceOnUse">
<stop stop-color="#0F1215"/>
<stop offset="1" stop-color="#FF0000" stop-opacity="0"/>
</linearGradient>
<linearGradient id="paint43_linear_5_7" x1="94.2953" y1="489.592" x2="94.2953" y2="865.051" gradientUnits="userSpaceOnUse">
<stop stop-color="#0F1215"/>
<stop offset="1" stop-color="#FF0000" stop-opacity="0"/>
</linearGradient>
<linearGradient id="paint44_linear_5_7" x1="94.2953" y1="489.592" x2="94.2953" y2="865.051" gradientUnits="userSpaceOnUse">
<stop stop-color="#0F1215"/>
<stop offset="1" stop-color="#FF0000" stop-opacity="0"/>
</linearGradient>
<linearGradient id="paint45_linear_5_7" x1="94.2953" y1="489.592" x2="94.2953" y2="865.051" gradientUnits="userSpaceOnUse">
<stop stop-color="#0F1215"/>
<stop offset="1" stop-color="#FF0000" stop-opacity="0"/>
</linearGradient>
<linearGradient id="paint46_linear_5_7" x1="94.2953" y1="489.592" x2="94.2953" y2="865.051" gradientUnits="userSpaceOnUse">
<stop stop-color="#0F1215"/>
<stop offset="1" stop-color="#FF0000" stop-opacity="0"/>
</linearGradient>
<linearGradient id="paint47_linear_5_7" x1="1164.63" y1="127.855" x2="1164.63" y2="488.166" gradientUnits="userSpaceOnUse">
<stop stop-color="#1B2127"/>
<stop offset="1" stop-color="#00B2FF" stop-opacity="0"/>
</linearGradient>
<linearGradient id="paint48_linear_5_7" x1="1164.63" y1="127.855" x2="1164.63" y2="488.166" gradientUnits="userSpaceOnUse">
<stop stop-color="#1B2127"/>
<stop offset="1" stop-color="#00B2FF" stop-opacity="0"/>
</linearGradient>
<linearGradient id="paint49_linear_5_7" x1="1164.63" y1="127.855" x2="1164.63" y2="488.166" gradientUnits="userSpaceOnUse">
<stop stop-color="#1B2127"/>
<stop offset="1" stop-color="#00B2FF" stop-opacity="0"/>
</linearGradient>
<linearGradient id="paint50_linear_5_7" x1="1164.63" y1="127.855" x2="1164.63" y2="488.166" gradientUnits="userSpaceOnUse">
<stop stop-color="#1B2127"/>
<stop offset="1" stop-color="#00B2FF" stop-opacity="0"/>
</linearGradient>
<linearGradient id="paint51_linear_5_7" x1="1164.63" y1="127.855" x2="1164.63" y2="488.166" gradientUnits="userSpaceOnUse">
<stop stop-color="#1B2127"/>
<stop offset="1" stop-color="#00B2FF" stop-opacity="0"/>
</linearGradient>
<linearGradient id="paint52_linear_5_7" x1="1164.63" y1="127.855" x2="1164.63" y2="488.166" gradientUnits="userSpaceOnUse">
<stop stop-color="#1B2127"/>
<stop offset="1" stop-color="#00B2FF" stop-opacity="0"/>
</linearGradient>
<linearGradient id="paint53_linear_5_7" x1="1164.63" y1="127.855" x2="1164.63" y2="488.166" gradientUnits="userSpaceOnUse">
<stop stop-color="#1B2127"/>
<stop offset="1" stop-color="#00B2FF" stop-opacity="0"/>
</linearGradient>
<linearGradient id="paint54_linear_5_7" x1="1164.63" y1="127.855" x2="1164.63" y2="488.166" gradientUnits="userSpaceOnUse">
<stop stop-color="#1B2127"/>
<stop offset="1" stop-color="#00B2FF" stop-opacity="0"/>
</linearGradient>
<linearGradient id="paint55_linear_5_7" x1="1164.63" y1="127.855" x2="1164.63" y2="488.166" gradientUnits="userSpaceOnUse">
<stop stop-color="#1B2127"/>
<stop offset="1" stop-color="#00B2FF" stop-opacity="0"/>
</linearGradient>
<linearGradient id="paint56_linear_5_7" x1="1164.63" y1="127.855" x2="1164.63" y2="488.166" gradientUnits="userSpaceOnUse">
<stop stop-color="#1B2127"/>
<stop offset="1" stop-color="#00B2FF" stop-opacity="0"/>
</linearGradient>
<linearGradient id="paint57_linear_5_7" x1="1164.63" y1="127.855" x2="1164.63" y2="488.166" gradientUnits="userSpaceOnUse">
<stop stop-color="#1B2127"/>
<stop offset="1" stop-color="#00B2FF" stop-opacity="0"/>
</linearGradient>
<linearGradient id="paint58_linear_5_7" x1="1164.63" y1="127.855" x2="1164.63" y2="488.166" gradientUnits="userSpaceOnUse">
<stop stop-color="#1B2127"/>
<stop offset="1" stop-color="#00B2FF" stop-opacity="0"/>
</linearGradient>
<linearGradient id="paint59_linear_5_7" x1="1164.63" y1="127.855" x2="1164.63" y2="488.166" gradientUnits="userSpaceOnUse">
<stop stop-color="#1B2127"/>
<stop offset="1" stop-color="#00B2FF" stop-opacity="0"/>
</linearGradient>
<linearGradient id="paint60_linear_5_7" x1="1164.63" y1="127.855" x2="1164.63" y2="488.166" gradientUnits="userSpaceOnUse">
<stop stop-color="#1B2127"/>
<stop offset="1" stop-color="#00B2FF" stop-opacity="0"/>
</linearGradient>
<linearGradient id="paint61_linear_5_7" x1="1164.63" y1="127.855" x2="1164.63" y2="488.166" gradientUnits="userSpaceOnUse">
<stop stop-color="#1B2127"/>
<stop offset="1" stop-color="#00B2FF" stop-opacity="0"/>
</linearGradient>
<linearGradient id="paint62_linear_5_7" x1="1164.63" y1="127.855" x2="1164.63" y2="488.166" gradientUnits="userSpaceOnUse">
<stop stop-color="#1B2127"/>
<stop offset="1" stop-color="#00B2FF" stop-opacity="0"/>
</linearGradient>
<linearGradient id="paint63_linear_5_7" x1="1164.63" y1="127.855" x2="1164.63" y2="488.166" gradientUnits="userSpaceOnUse">
<stop stop-color="#1B2127"/>
<stop offset="1" stop-color="#00B2FF" stop-opacity="0"/>
</linearGradient>
<linearGradient id="paint64_linear_5_7" x1="1164.63" y1="127.855" x2="1164.63" y2="488.166" gradientUnits="userSpaceOnUse">
<stop stop-color="#1B2127"/>
<stop offset="1" stop-color="#00B2FF" stop-opacity="0"/>
</linearGradient>
<linearGradient id="paint65_linear_5_7" x1="1164.63" y1="127.855" x2="1164.63" y2="488.166" gradientUnits="userSpaceOnUse">
<stop stop-color="#1B2127"/>
<stop offset="1" stop-color="#00B2FF" stop-opacity="0"/>
</linearGradient>
<linearGradient id="paint66_linear_5_7" x1="1164.63" y1="127.855" x2="1164.63" y2="488.166" gradientUnits="userSpaceOnUse">
<stop stop-color="#1B2127"/>
<stop offset="1" stop-color="#00B2FF" stop-opacity="0"/>
</linearGradient>
<linearGradient id="paint67_linear_5_7" x1="1164.63" y1="127.855" x2="1164.63" y2="488.166" gradientUnits="userSpaceOnUse">
<stop stop-color="#1B2127"/>
<stop offset="1" stop-color="#00B2FF" stop-opacity="0"/>
</linearGradient>
<linearGradient id="paint68_linear_5_7" x1="1164.63" y1="127.855" x2="1164.63" y2="488.166" gradientUnits="userSpaceOnUse">
<stop stop-color="#1B2127"/>
<stop offset="1" stop-color="#00B2FF" stop-opacity="0"/>
</linearGradient>
<linearGradient id="paint69_linear_5_7" x1="1164.63" y1="127.855" x2="1164.63" y2="488.166" gradientUnits="userSpaceOnUse">
<stop stop-color="#1B2127"/>
<stop offset="1" stop-color="#00B2FF" stop-opacity="0"/>
</linearGradient>
<linearGradient id="paint70_linear_5_7" x1="1164.63" y1="127.855" x2="1164.63" y2="488.166" gradientUnits="userSpaceOnUse">
<stop stop-color="#1B2127"/>
<stop offset="1" stop-color="#00B2FF" stop-opacity="0"/>
</linearGradient>
<linearGradient id="paint71_linear_5_7" x1="1164.63" y1="127.855" x2="1164.63" y2="488.166" gradientUnits="userSpaceOnUse">
<stop stop-color="#1B2127"/>
<stop offset="1" stop-color="#00B2FF" stop-opacity="0"/>
</linearGradient>
<linearGradient id="paint72_linear_5_7" x1="1164.63" y1="127.855" x2="1164.63" y2="488.166" gradientUnits="userSpaceOnUse">
<stop stop-color="#1B2127"/>
<stop offset="1" stop-color="#00B2FF" stop-opacity="0"/>
</linearGradient>
<linearGradient id="paint73_linear_5_7" x1="1164.63" y1="127.855" x2="1164.63" y2="488.166" gradientUnits="userSpaceOnUse">
<stop stop-color="#1B2127"/>
<stop offset="1" stop-color="#00B2FF" stop-opacity="0"/>
</linearGradient>
<linearGradient id="paint74_linear_5_7" x1="1164.63" y1="127.855" x2="1164.63" y2="488.166" gradientUnits="userSpaceOnUse">
<stop stop-color="#1B2127"/>
<stop offset="1" stop-color="#00B2FF" stop-opacity="0"/>
</linearGradient>
<linearGradient id="paint75_linear_5_7" x1="1164.63" y1="127.855" x2="1164.63" y2="488.166" gradientUnits="userSpaceOnUse">
<stop stop-color="#1B2127"/>
<stop offset="1" stop-color="#00B2FF" stop-opacity="0"/>
</linearGradient>
<linearGradient id="paint76_linear_5_7" x1="1164.63" y1="127.855" x2="1164.63" y2="488.166" gradientUnits="userSpaceOnUse">
<stop stop-color="#1B2127"/>
<stop offset="1" stop-color="#00B2FF" stop-opacity="0"/>
</linearGradient>
<linearGradient id="paint77_linear_5_7" x1="1164.63" y1="127.855" x2="1164.63" y2="488.166" gradientUnits="userSpaceOnUse">
<stop stop-color="#1B2127"/>
<stop offset="1" stop-color="#00B2FF" stop-opacity="0"/>
</linearGradient>
<linearGradient id="paint78_linear_5_7" x1="1164.63" y1="127.855" x2="1164.63" y2="488.166" gradientUnits="userSpaceOnUse">
<stop stop-color="#1B2127"/>
<stop offset="1" stop-color="#00B2FF" stop-opacity="0"/>
</linearGradient>
<linearGradient id="paint79_linear_5_7" x1="1164.63" y1="127.855" x2="1164.63" y2="488.166" gradientUnits="userSpaceOnUse">
<stop stop-color="#1B2127"/>
<stop offset="1" stop-color="#00B2FF" stop-opacity="0"/>
</linearGradient>
<linearGradient id="paint80_linear_5_7" x1="1164.63" y1="127.855" x2="1164.63" y2="488.166" gradientUnits="userSpaceOnUse">
<stop stop-color="#1B2127"/>
<stop offset="1" stop-color="#00B2FF" stop-opacity="0"/>
</linearGradient>
<linearGradient id="paint81_linear_5_7" x1="1164.63" y1="127.855" x2="1164.63" y2="488.166" gradientUnits="userSpaceOnUse">
<stop stop-color="#1B2127"/>
<stop offset="1" stop-color="#00B2FF" stop-opacity="0"/>
</linearGradient>
<linearGradient id="paint82_linear_5_7" x1="1164.63" y1="127.855" x2="1164.63" y2="488.166" gradientUnits="userSpaceOnUse">
<stop stop-color="#1B2127"/>
<stop offset="1" stop-color="#00B2FF" stop-opacity="0"/>
</linearGradient>
<linearGradient id="paint83_linear_5_7" x1="1164.63" y1="127.855" x2="1164.63" y2="488.166" gradientUnits="userSpaceOnUse">
<stop stop-color="#1B2127"/>
<stop offset="1" stop-color="#00B2FF" stop-opacity="0"/>
</linearGradient>
<linearGradient id="paint84_linear_5_7" x1="1164.63" y1="127.855" x2="1164.63" y2="488.166" gradientUnits="userSpaceOnUse">
<stop stop-color="#1B2127"/>
<stop offset="1" stop-color="#00B2FF" stop-opacity="0"/>
</linearGradient>
<linearGradient id="paint85_linear_5_7" x1="1164.63" y1="127.855" x2="1164.63" y2="488.166" gradientUnits="userSpaceOnUse">
<stop stop-color="#1B2127"/>
<stop offset="1" stop-color="#00B2FF" stop-opacity="0"/>
</linearGradient>
<linearGradient id="paint86_linear_5_7" x1="1164.63" y1="127.855" x2="1164.63" y2="488.166" gradientUnits="userSpaceOnUse">
<stop stop-color="#1B2127"/>
<stop offset="1" stop-color="#00B2FF" stop-opacity="0"/>
</linearGradient>
<linearGradient id="paint87_linear_5_7" x1="1164.63" y1="127.855" x2="1164.63" y2="488.166" gradientUnits="userSpaceOnUse">
<stop stop-color="#1B2127"/>
<stop offset="1" stop-color="#00B2FF" stop-opacity="0"/>
</linearGradient>
<linearGradient id="paint88_linear_5_7" x1="1164.63" y1="127.855" x2="1164.63" y2="488.166" gradientUnits="userSpaceOnUse">
<stop stop-color="#1B2127"/>
<stop offset="1" stop-color="#00B2FF" stop-opacity="0"/>
</linearGradient>
<linearGradient id="paint89_linear_5_7" x1="1164.63" y1="127.855" x2="1164.63" y2="488.166" gradientUnits="userSpaceOnUse">
<stop stop-color="#1B2127"/>
<stop offset="1" stop-color="#00B2FF" stop-opacity="0"/>
</linearGradient>
<linearGradient id="paint90_linear_5_7" x1="1164.63" y1="127.855" x2="1164.63" y2="488.166" gradientUnits="userSpaceOnUse">
<stop stop-color="#1B2127"/>
<stop offset="1" stop-color="#00B2FF" stop-opacity="0"/>
</linearGradient>
<linearGradient id="paint91_linear_5_7" x1="1164.63" y1="127.855" x2="1164.63" y2="488.166" gradientUnits="userSpaceOnUse">
<stop stop-color="#1B2127"/>
<stop offset="1" stop-color="#00B2FF" stop-opacity="0"/>
</linearGradient>
<linearGradient id="paint92_linear_5_7" x1="1164.63" y1="127.855" x2="1164.63" y2="488.166" gradientUnits="userSpaceOnUse">
<stop stop-color="#1B2127"/>
<stop offset="1" stop-color="#00B2FF" stop-opacity="0"/>
</linearGradient>
<linearGradient id="paint93_linear_5_7" x1="1164.63" y1="127.855" x2="1164.63" y2="488.166" gradientUnits="userSpaceOnUse">
<stop stop-color="#1B2127"/>
<stop offset="1" stop-color="#00B2FF" stop-opacity="0"/>
</linearGradient>
<clipPath id="clip0_5_7">
<rect width="1280" height="832" fill="white"/>
</clipPath>
</defs>
</svg>
