<svg width="367" height="236" viewBox="0 0 367 236" fill="none" xmlns="http://www.w3.org/2000/svg">
<rect x="4.48675" width="71.6839" height="71.6839" transform="matrix(0.747791 -0.663934 0.747791 0.663934 119.132 54.5559)" stroke="#FF66C4" stroke-width="6"/>
<path d="M172.508 26.9594C172.508 38.0694 162.242 47.6651 148.808 47.6651C135.373 47.6651 125.108 38.0694 125.108 26.9594C125.108 15.8494 135.373 6.2536 148.808 6.2536C162.242 6.2536 172.508 15.8494 172.508 26.9594Z" stroke="#FF3131" stroke-width="6"/>
<path d="M202.156 96.1138L192.111 62.8278L229.601 71.7467L202.156 96.1138Z" stroke="#83AB72" stroke-width="6"/>
<line y1="-3" x2="50.4945" y2="-3" transform="matrix(0.747791 -0.663934 0.747791 0.663934 130.323 93.3078)" stroke="#0097B2" stroke-width="6"/>
<path d="M26.2382 183.65C26.1382 180.35 26.0882 177.183 26.0882 174.15C26.0882 168.683 26.2548 163.733 26.5882 159.3C26.9215 154.867 27.4048 151.1 28.0382 148C28.3382 146.567 28.7548 145.183 29.2882 143.85C29.8548 142.517 30.6382 141.433 31.6382 140.6C32.6715 139.733 34.0215 139.3 35.6882 139.3C37.3215 139.3 38.7048 139.733 39.8382 140.6C40.9715 141.433 41.8882 142.45 42.5882 143.65C43.3215 144.85 43.8548 146 44.1882 147.1C45.0548 149.7 45.7882 152.3 46.3882 154.9C46.9882 157.5 47.5215 159.983 47.9882 162.35C48.3215 160.617 48.7048 158.8 49.1382 156.9C49.5715 154.967 50.0048 153.15 50.4382 151.45C50.8715 149.717 51.2715 148.283 51.6382 147.15C53.3382 141.917 55.9548 139.3 59.4882 139.3C61.4548 139.3 63.1215 140.017 64.4882 141.45C65.8548 142.85 66.8548 144.883 67.4882 147.55C67.7882 148.75 68.0882 150.5 68.3882 152.8C68.7215 155.1 69.0215 157.833 69.2882 161C69.5882 164.133 69.8382 167.6 70.0382 171.4C70.2715 175.2 70.4548 179.233 70.5882 183.5L61.7882 183.3C61.7882 181.533 61.7382 179.483 61.6382 177.15C61.5715 174.817 61.4548 172.4 61.2882 169.9C61.1548 167.367 60.9882 164.9 60.7882 162.5C60.6215 160.1 60.4382 157.933 60.2382 156C60.0715 154.067 59.9048 152.533 59.7382 151.4C59.5715 150.233 59.4215 149.65 59.2882 149.65C59.2548 149.65 59.0715 150.25 58.7382 151.45C58.4382 152.617 58.0548 154.183 57.5882 156.15C57.1548 158.117 56.6715 160.283 56.1382 162.65C55.6048 165.017 55.0715 167.4 54.5382 169.8C54.0382 172.167 53.5882 174.367 53.1882 176.4C52.7882 178.4 52.4715 180.033 52.2382 181.3L44.3882 181.5C43.9882 179.633 43.5048 177.583 42.9382 175.35C42.4048 173.083 41.8382 170.783 41.2382 168.45C40.6715 166.083 40.1048 163.817 39.5382 161.65C38.9715 159.45 38.4382 157.483 37.9382 155.75C37.4715 154.017 37.0882 152.65 36.7882 151.65C36.4882 150.617 36.3048 150.1 36.2382 150.1C36.1048 150.1 35.9548 150.833 35.7882 152.3C35.6548 153.733 35.5215 155.683 35.3882 158.15C35.2548 160.617 35.1382 163.4 35.0382 166.5C34.9715 169.6 34.9382 172.8 34.9382 176.1C34.9382 177.667 34.9382 179.1 34.9382 180.4C34.9715 181.7 35.0048 182.767 35.0382 183.6L26.2382 183.65ZM107.01 183.55L98.4604 181.95C100.06 175.483 101.727 169.633 103.46 164.4C105.227 159.167 107.044 154.683 108.91 150.95C110.777 147.217 112.677 144.35 114.61 142.35C116.577 140.317 118.544 139.3 120.51 139.3C124.477 139.3 128.127 142.983 131.46 150.35C134.794 157.683 137.627 168.317 139.96 182.25L131.11 183.45C130.71 181.25 130.277 179 129.81 176.7C129.344 174.367 128.86 172.1 128.36 169.9C127.56 169.867 126.694 169.85 125.76 169.85C124.127 169.85 122.394 169.883 120.56 169.95C118.76 170.017 116.977 170.133 115.21 170.3C113.477 170.433 111.86 170.583 110.36 170.75C109.727 172.883 109.11 175.05 108.51 177.25C107.944 179.417 107.444 181.517 107.01 183.55ZM116.21 154.35C115.477 155.917 114.494 158.45 113.26 161.95C114.694 161.783 116.21 161.667 117.81 161.6C119.41 161.5 120.977 161.45 122.51 161.45C123.81 161.45 125.06 161.483 126.26 161.55C125.794 159.85 125.344 158.333 124.91 157C124.51 155.667 124.144 154.617 123.81 153.85C123.11 152.05 122.494 150.783 121.96 150.05C121.427 149.283 120.877 148.9 120.31 148.9C119.71 148.9 119.11 149.3 118.51 150.1C117.91 150.867 117.144 152.283 116.21 154.35ZM168.869 183.45C168.602 181.717 168.369 179.617 168.169 177.15C168.002 174.683 167.869 172 167.769 169.1C167.702 166.2 167.669 163.25 167.669 160.25C167.669 156.483 167.735 152.817 167.869 149.25C168.002 145.683 168.202 142.55 168.469 139.85L177.669 140C177.302 142.367 177.019 145.15 176.819 148.35C176.652 151.55 176.569 155.183 176.569 159.25C176.569 163.383 176.635 167.533 176.769 171.7C176.935 175.867 177.119 179.683 177.319 183.15L168.869 183.45ZM207.971 183.65C207.971 178.45 208.037 173.767 208.171 169.6C208.337 165.4 208.537 161.583 208.771 158.15C209.037 154.683 209.321 151.467 209.621 148.5C209.954 145.5 210.271 142.633 210.571 139.9L219.171 140.25C219.037 141.283 218.887 142.4 218.721 143.6C219.854 145.133 221.087 146.883 222.421 148.85C223.787 150.817 225.171 152.9 226.571 155.1C228.004 157.267 229.404 159.45 230.771 161.65C232.137 163.817 233.437 165.9 234.671 167.9C235.904 169.867 236.987 171.633 237.921 173.2C238.154 170.9 238.271 167.667 238.271 163.5C238.271 161.367 238.237 159.167 238.171 156.9C238.104 154.633 238.021 152.467 237.921 150.4C237.821 148.3 237.687 146.433 237.521 144.8C237.354 143.133 237.171 141.833 236.971 140.9L246.371 139.75C246.437 141.383 246.471 143.533 246.471 146.2C246.504 148.833 246.521 151.633 246.521 154.6C246.521 157.233 246.504 159.883 246.471 162.55C246.437 165.183 246.371 167.617 246.271 169.85C246.171 172.083 246.021 173.933 245.821 175.4C245.454 178.267 244.721 180.383 243.621 181.75C242.521 183.117 240.971 183.8 238.971 183.8C237.337 183.8 235.837 183.233 234.471 182.1C233.137 180.967 231.687 179.1 230.121 176.5C229.054 174.7 227.804 172.633 226.371 170.3C224.971 167.933 223.504 165.517 221.971 163.05C220.471 160.583 219.021 158.233 217.621 156C217.354 159.9 217.154 163.8 217.021 167.7C216.887 171.567 216.821 175.067 216.821 178.2C216.821 179.2 216.821 180.133 216.821 181C216.821 181.9 216.837 182.733 216.871 183.5L207.971 183.65ZM284.173 183.55L275.623 181.95C277.223 175.483 278.889 169.633 280.623 164.4C282.389 159.167 284.206 154.683 286.073 150.95C287.939 147.217 289.839 144.35 291.773 142.35C293.739 140.317 295.706 139.3 297.673 139.3C301.639 139.3 305.289 142.983 308.623 150.35C311.956 157.683 314.789 168.317 317.123 182.25L308.273 183.45C307.873 181.25 307.439 179 306.973 176.7C306.506 174.367 306.023 172.1 305.523 169.9C304.723 169.867 303.856 169.85 302.923 169.85C301.289 169.85 299.556 169.883 297.723 169.95C295.923 170.017 294.139 170.133 292.373 170.3C290.639 170.433 289.023 170.583 287.523 170.75C286.889 172.883 286.273 175.05 285.673 177.25C285.106 179.417 284.606 181.517 284.173 183.55ZM293.373 154.35C292.639 155.917 291.656 158.45 290.423 161.95C291.856 161.783 293.373 161.667 294.973 161.6C296.573 161.5 298.139 161.45 299.673 161.45C300.973 161.45 302.223 161.483 303.423 161.55C302.956 159.85 302.506 158.333 302.073 157C301.673 155.667 301.306 154.617 300.973 153.85C300.273 152.05 299.656 150.783 299.123 150.05C298.589 149.283 298.039 148.9 297.473 148.9C296.873 148.9 296.273 149.3 295.673 150.1C295.073 150.867 294.306 152.283 293.373 154.35ZM96.0671 235.7C92.1671 235.7 88.7337 234.783 85.7671 232.95C82.8004 231.117 80.4837 228.55 78.8171 225.25C77.1837 221.95 76.3671 218.117 76.3671 213.75C76.3671 210.55 76.8671 207.6 77.8671 204.9C78.8671 202.2 80.2671 199.85 82.0671 197.85C83.8671 195.817 85.9837 194.25 88.4171 193.15C90.8837 192.05 93.5504 191.5 96.4171 191.5C102.85 191.5 107.8 193.483 111.267 197.45C114.767 201.383 116.517 206.983 116.517 214.25C116.517 219.317 115.45 223.583 113.317 227.05C114.784 228.017 116.2 228.75 117.567 229.25L112.417 235.9C110.684 235.067 108.984 234.083 107.317 232.95C104.184 234.783 100.434 235.7 96.0671 235.7ZM96.0671 227.4C96.7671 227.4 97.5004 227.367 98.2671 227.3C99.0337 227.233 99.8004 227.117 100.567 226.95C99.2337 225.45 98.0004 223.9 96.8671 222.3C95.7671 220.667 94.7837 219.017 93.9171 217.35L101.667 214C102.067 215.133 102.717 216.367 103.617 217.7C104.55 219.033 105.634 220.35 106.867 221.65C107.3 220.683 107.634 219.55 107.867 218.25C108.134 216.95 108.267 215.45 108.267 213.75C108.267 209.217 107.25 205.783 105.217 203.45C103.184 201.083 100.234 199.9 96.3671 199.9C92.6337 199.9 89.7337 201.183 87.6671 203.75C85.6004 206.317 84.5671 209.983 84.5671 214.75C84.5671 216.983 84.9171 218.9 85.6171 220.5C86.3504 222.1 87.3004 223.417 88.4671 224.45C89.6337 225.45 90.8837 226.2 92.2171 226.7C93.5504 227.167 94.8337 227.4 96.0671 227.4ZM164.925 235.9C161.725 235.9 159.075 235.383 156.975 234.35C154.875 233.35 153.192 231.967 151.925 230.2C150.692 228.4 149.758 226.333 149.125 224C148.525 221.667 148.125 219.167 147.925 216.5C147.758 213.833 147.675 211.133 147.675 208.4C147.675 205.3 147.775 202.283 147.975 199.35C148.175 196.383 148.392 193.9 148.625 191.9L157.825 192.45C157.492 194.883 157.225 197.067 157.025 199C156.858 200.9 156.742 202.7 156.675 204.4C156.608 206.1 156.575 207.85 156.575 209.65C156.575 211.05 156.592 212.567 156.625 214.2C156.692 215.8 156.842 217.4 157.075 219C157.342 220.567 157.742 222 158.275 223.3C158.842 224.567 159.625 225.6 160.625 226.4C161.658 227.167 162.975 227.55 164.575 227.55C166.308 227.55 167.708 227.167 168.775 226.4C169.875 225.6 170.725 224.55 171.325 223.25C171.925 221.917 172.358 220.45 172.625 218.85C172.892 217.217 173.042 215.567 173.075 213.9C173.142 212.2 173.175 210.6 173.175 209.1C173.175 206.267 173.092 203.517 172.925 200.85C172.758 198.183 172.542 195.35 172.275 192.35L181.475 191.65C181.742 194.85 181.942 197.783 182.075 200.45C182.208 203.083 182.275 205.517 182.275 207.75C182.275 210.783 182.158 213.7 181.925 216.5C181.725 219.3 181.292 221.883 180.625 224.25C179.958 226.583 178.992 228.633 177.725 230.4C176.458 232.133 174.775 233.483 172.675 234.45C170.608 235.417 168.025 235.9 164.925 235.9ZM213.681 235.45C213.414 233.717 213.181 231.617 212.981 229.15C212.814 226.683 212.681 224 212.581 221.1C212.514 218.2 212.481 215.25 212.481 212.25C212.481 208.483 212.548 204.817 212.681 201.25C212.814 197.683 213.014 194.55 213.281 191.85L222.481 192C222.114 194.367 221.831 197.15 221.631 200.35C221.464 203.55 221.381 207.183 221.381 211.25C221.381 215.383 221.448 219.533 221.581 223.7C221.748 227.867 221.931 231.683 222.131 235.15L213.681 235.45ZM254.383 235.95C254.216 235.35 253.983 234.6 253.683 233.7C253.383 232.833 253.05 231.95 252.683 231.05C252.35 230.15 251.983 229.367 251.583 228.7L251.733 228.4C252.166 228.267 252.583 228.15 252.983 228.05C255.65 225.817 258.166 223.517 260.533 221.15C262.933 218.75 265.133 216.417 267.133 214.15C269.166 211.883 270.933 209.817 272.433 207.95C273.966 206.05 275.183 204.483 276.083 203.25C277.016 202.017 277.583 201.25 277.783 200.95C277.916 200.717 278.033 200.533 278.133 200.4C278.233 200.233 278.3 200.117 278.333 200.05C278.266 200.05 278.133 200.05 277.933 200.05C277.766 200.017 277.483 200 277.083 200C276.383 200 275.2 200.05 273.533 200.15C271.866 200.25 269.9 200.4 267.633 200.6C265.366 200.767 262.983 200.983 260.483 201.25C257.983 201.517 255.55 201.833 253.183 202.2L252.133 193.5C255.133 193.067 258.2 192.717 261.333 192.45C264.5 192.15 267.533 191.933 270.433 191.8C273.366 191.633 275.983 191.55 278.283 191.55C279.383 191.55 280.55 191.6 281.783 191.7C283.016 191.8 284.15 192.017 285.183 192.35C286.25 192.683 287.116 193.233 287.783 194C288.45 194.733 288.783 195.75 288.783 197.05C288.783 199.017 287.85 201.333 285.983 204C284.05 206.833 281.95 209.6 279.683 212.3C277.45 214.967 275.216 217.467 272.983 219.8C270.783 222.133 268.75 224.2 266.883 226C268.083 225.933 269.3 225.9 270.533 225.9C271.8 225.867 273.083 225.85 274.383 225.85C277.35 225.85 280.166 225.95 282.833 226.15C285.5 226.317 287.833 226.583 289.833 226.95L288.333 235.55C286.066 235.183 283.566 234.917 280.833 234.75C278.133 234.617 275.383 234.55 272.583 234.55C269.35 234.55 266.15 234.667 262.983 234.9C259.816 235.133 256.95 235.483 254.383 235.95Z" fill="url(#paint0_linear_5_30)" style="mix-blend-mode:exclusion"/>
<defs>
<linearGradient id="paint0_linear_5_30" x1="183.209" y1="148" x2="183.209" y2="220.521" gradientUnits="userSpaceOnUse">
<stop stop-color="#FF66C4"/>
<stop offset="1" stop-color="#0097B2"/>
</linearGradient>
</defs>
</svg>
